<svg id="Layer_1" data-name="Layer 1" xmlns="http://www.w3.org/2000/svg" viewBox="0 0 613 364.18"><defs><style>.cls-1{fill:#4c51a3;stroke:#fff;stroke-miterlimit:10;}.cls-2{fill:#fff;}</style></defs><rect class="cls-1" x="0.5" y="0.5" width="612" height="363.18"/><path class="cls-2" d="M90.09,168.46a15.61,15.61,0,0,0-1.94,3.42,47.19,47.19,0,0,1-1.9,4.32l-.12.14-.14-.4A19.45,19.45,0,0,0,84.91,173a5.44,5.44,0,0,0-1.26-1.57,7.07,7.07,0,0,0-4.85-1.9,6.28,6.28,0,0,0-4.18,1.39A4.41,4.41,0,0,0,73,174.44q0,3.93,5.93,5.36l4,1q8.46,2,8.46,8.93a8.34,8.34,0,0,1-2.89,6.45,10.31,10.31,0,0,1-7.16,2.62,25.41,25.41,0,0,1-6-.82l-2.74-.68a12,12,0,0,0-2.74-.4,5.74,5.74,0,0,0-3,.91l-.18-.33a31.58,31.58,0,0,0,4.07-8.34l.43.12a8.55,8.55,0,0,0,3,5.72,9.82,9.82,0,0,0,6.44,2,7.89,7.89,0,0,0,5-1.45,4.72,4.72,0,0,0,1.85-3.91,5.57,5.57,0,0,0-2.58-4.69c-1.23-.88-3.77-1.69-7.59-2.44q-4.44-.87-6.43-2.88A8.46,8.46,0,0,1,71.47,170a10.2,10.2,0,0,1,6.93-2.31,25.33,25.33,0,0,1,6.4,1,10.86,10.86,0,0,0,2.53.47,5,5,0,0,0,2.51-.8Zm0,14.95A7.84,7.84,0,0,1,93.28,190a9.81,9.81,0,0,1-3.47,7.59,12.18,12.18,0,0,1-8.43,3.1,18.93,18.93,0,0,1-4.58-.51l-3.75-.92a11.45,11.45,0,0,0-2.81-.33,5.61,5.61,0,0,0-2.46.54l-.28-.68a5.93,5.93,0,0,1,2.48-.56,14.46,14.46,0,0,1,3.22.42l3.6.87a19.77,19.77,0,0,0,4.55.51,11.44,11.44,0,0,0,8-3,9.42,9.42,0,0,0,3.29-7.23,8.9,8.9,0,0,0-2.53-6.29Zm-19.61-.84.79.45q.78,1.38,4.53,2.29l3.77.94a25.88,25.88,0,0,1,5.12,1.65,3.89,3.89,0,0,1,1.82,2.1l-.17.09a6.82,6.82,0,0,0-2.28-1.78,30.86,30.86,0,0,0-4.72-1.38,36.72,36.72,0,0,1-6.8-2A3.47,3.47,0,0,1,70.48,182.57Zm2.93,7.59a8,8,0,0,0,4.64,6v.19a7.18,7.18,0,0,1-5.28-6.05Zm11.29-16a7.55,7.55,0,0,0-5.53-2.74,4.28,4.28,0,0,0-3,1A3.34,3.34,0,0,0,75.05,175c0,1.16.79,2.35,2.36,3.57l.19.11-.12.19q-3.09-1.38-3.09-4a3.76,3.76,0,0,1,1.31-3,5,5,0,0,1,3.42-1.15,7,7,0,0,1,3.53.85A5.14,5.14,0,0,1,84.87,174Zm6.85-4.66-.21.35a33.7,33.7,0,0,0-1.64,3.09q-1.65,3.45-1.86,3.84l-.11.17-.57-.24.1-.21c.45-1,1.11-2.37,2-4l1.59-3.09.12-.19Z" transform="translate(0.5 0.5)"/><path class="cls-2" d="M120.12,168.2l-.38.45a23.15,23.15,0,0,0-3.79,6.73l-.36-.8a7.62,7.62,0,0,0-2.76-3.63c-1-.55-2.75-.83-5.3-.83-1.17,0-2.58,0-4.22.12V181h1.5v-9.54c1.19-.1,2.32-.16,3.4-.16a11.31,11.31,0,0,1,4.38.63,5.94,5.94,0,0,1,2.51,2.46c-.22-.15-.37-.27-.47-.35a11.34,11.34,0,0,0-2.74-1.78,12.51,12.51,0,0,0-3.33-.28q-.75,0-2.67.09l-.49,0V181h4.31l3-4.14V187l-3-3.92h-6.4v13.15h1.5V184.16h5.09l.61.61H105.4v11.44a23.86,23.86,0,0,0,6.8-.68,5.68,5.68,0,0,0,3.16-2.67l1.24-2.13.28-.52a15.58,15.58,0,0,0,1.51,4.13,19.18,19.18,0,0,0,3,3.61H95.11l3.56-2.72V184.77A8.77,8.77,0,0,0,95.11,186l-.33-.49a8.38,8.38,0,0,1,3.89-1.34v-1.1a5.24,5.24,0,0,0-.56,0,6.4,6.4,0,0,0-4.36,1.75A4.69,4.69,0,0,1,98.67,181V171l-3.56-2.82Zm3.93,29.89-1.21,2.11H97.24l-.37-.64h25.66l.8-1.47a18.13,18.13,0,0,1-4.76-6.66l.75.28a19.13,19.13,0,0,0,4.36,6Zm-9.7-20.44V188l-.58-.31V177.34Zm6.89-7.81-.16.21a27.78,27.78,0,0,0-3.82,6.45l-.4-.49a28.24,28.24,0,0,1,4-6.66Z" transform="translate(0.5 0.5)"/><path class="cls-2" d="M150,168.2l-.37.45a23.18,23.18,0,0,0-3.8,6.73c-.16-.36-.27-.63-.35-.8a7.57,7.57,0,0,0-2.77-3.63c-1-.55-2.75-.83-5.29-.83-1.17,0-2.58,0-4.22.12V181h1.5v-9.54c1.19-.1,2.32-.16,3.4-.16a11.38,11.38,0,0,1,4.38.63,6,6,0,0,1,2.51,2.46,5.14,5.14,0,0,1-.47-.35,11.54,11.54,0,0,0-2.74-1.78,12.61,12.61,0,0,0-3.33-.28q-.75,0-2.67.09l-.5,0V181h4.32l3-4.14V187l-3-3.92h-6.4v13.15h1.5V184.16h5.08l.61.61h-5.11v11.44a23.81,23.81,0,0,0,6.8-.68,5.66,5.66,0,0,0,3.17-2.67l1.24-2.13c0-.1.14-.27.28-.52a15.23,15.23,0,0,0,1.51,4.13,18.8,18.8,0,0,0,3,3.61H125l3.56-2.72V184.77A8.77,8.77,0,0,0,125,186l-.33-.49a8.38,8.38,0,0,1,3.89-1.34v-1.1a5.59,5.59,0,0,0-.56,0,6.38,6.38,0,0,0-4.36,1.75,4.69,4.69,0,0,1,4.92-3.75V171L125,168.2Zm3.94,29.89-1.22,2.11H127.08l-.38-.64h25.67l.79-1.47a18.1,18.1,0,0,1-4.75-6.66l.75.28a19.13,19.13,0,0,0,4.36,6Zm-9.7-20.44V188l-.59-.31V177.34Zm6.89-7.81-.17.21a28.15,28.15,0,0,0-3.82,6.45l-.39-.49a27.6,27.6,0,0,1,4.05-6.66Z" transform="translate(0.5 0.5)"/><path class="cls-2" d="M198,168.2l-3.21,3.26v24.07l2.88,2.74H186.84l3.26-2.74V179.76l-7.43,20.44h-2.25l-.19-.64h2l7.83-21.79v-3.59l-8.72,24.07h-1.64l-6.42-18.91v12.39a13,13,0,0,0,.33,3.52,6,6,0,0,0,1.55,2.27l2.1,2.68H165.05l-.43-.64h11.51l-.86-1.29H164.81l.49-.25a8.66,8.66,0,0,0,3.44-2.9,9.84,9.84,0,0,0,.83-4.63V171.11l-3.09-2.91h12.11l-3.39,3.07,6.63,19.62.84-2-6-17.39,3.07-2.27.49.4-2.93,2.06L182.88,188l6.05-16.71-2.86-3.07Zm-26.53,5.56v16.83a13.16,13.16,0,0,0,.74,5.32,4.58,4.58,0,0,0,3.06,2.11l-.21-.36a5.24,5.24,0,0,1-2.3-4.59V177.48ZM199.27,170l-2.65,1.9v23.62l4.08,4.65H188.25l-.33-.64h11.35L196,195.88V171.53l2.76-1.9Z" transform="translate(0.5 0.5)"/><path class="cls-2" d="M234.26,160l.14.19-.24.26a50.54,50.54,0,0,0-6.91,8.86l-1.5,2.44L217,185.64v9.52l3.4,3.11H209l3.37-3.11v-9.52L206.77,177l-1.22-1.94a31.85,31.85,0,0,0-2.73-3.8,25.64,25.64,0,0,0-3.16-2.84l-.25-.21h11.83l-2.9,3,7.8,11.76.75-1.19-7-10.57,2.46-2.35.49.38-2.13,2,6.49,10,5.25-8.27c1.52-2.41,2.28-4.2,2.28-5.39,0-1-.67-2.14-2-3.42A45.81,45.81,0,0,0,234,160.09Zm1.05,1.41v1l-.23.23a31.91,31.91,0,0,0-3.39,3.75c-.94,1.25-2.35,3.36-4.21,6.31L219,186v9.19l4.17,5H208.5l-.28-.64h13.71l-3.56-4.4V185.8L227,172.16l1.36-2.15A38.8,38.8,0,0,1,235.31,161.36Z" transform="translate(0.5 0.5)"/><path class="cls-2" d="M257.44,167.9a11,11,0,0,1,9.1,4.31q3.42,4.32,3.41,11.53,0,6.82-3.36,10.88a11.13,11.13,0,0,1-9,4,12.18,12.18,0,0,1-8-2.86q-5.15-4.22-5.14-12.49,0-7.08,3.52-11.25A11.74,11.74,0,0,1,257.44,167.9Zm0,2q-7.92,0-7.92,13.93,0,12.85,7.8,12.86a6,6,0,0,0,5.53-3.41q1.9-3.4,1.9-10,0-7.42-1.83-10.36A6.12,6.12,0,0,0,257.44,169.91Zm7.47-.82a11.61,11.61,0,0,1,5.3,5.53,20.06,20.06,0,0,1,2,9q0,7.54-3.84,12.19a12.42,12.42,0,0,1-10.06,4.64,11.93,11.93,0,0,1-7.46-2.7v-.11a13.06,13.06,0,0,0,16.95-2.3,16.82,16.82,0,0,0,3.77-11.32,21.8,21.8,0,0,0-1.72-9,12.37,12.37,0,0,0-4.89-5.74Zm-2.46,4.34-.4-.23a8.64,8.64,0,0,0-4.12-1.25q-6.17,0-6.16,12.12,0,8.87,3.82,11.74l-.21.24a9,9,0,0,1-3.34-4.37,21.69,21.69,0,0,1-1-7.33q0-13,6.84-13A5.18,5.18,0,0,1,262.45,173.43Z" transform="translate(0.5 0.5)"/><path class="cls-2" d="M300.38,168.2l-.29.54-1.59,2.81A20.75,20.75,0,0,0,297,175.3l-.05.12-.23-.16-.08-.31a6.86,6.86,0,0,0-1.93-3.7,5.92,5.92,0,0,0-3.83-1c-.7,0-1.41,0-2.11.09h-.28v25.41l2.76,2.55H280.52l3.28-2.74V172.21l-1.66,0a3.88,3.88,0,0,0-4.64,4.29h-.61a5.88,5.88,0,0,1,1.42-3.82,5.53,5.53,0,0,1,3.83-1.08l1.41,0h.25v-1.15a20.16,20.16,0,0,0-2.27-.14,6.34,6.34,0,0,0-4.36,1.23,5.85,5.85,0,0,0-1.47,4.16h-.29a43.72,43.72,0,0,0-3.11-7.26l-.14-.24Zm-4.79,5.14a7.49,7.49,0,0,0-4.21-1.18,11.23,11.23,0,0,0-1.13.07l.09,23.56,3.73,4.41h-12l-.54-.64h11.23L289.64,196V171.55l1.27,0a10.07,10.07,0,0,1,3.22.36A2.72,2.72,0,0,1,295.59,173.34Zm6.26-3.66a26.9,26.9,0,0,0-3.4,6.84l-.09.24-.52-.45.07-.21a23,23,0,0,1,3.36-6.75l.11-.14Z" transform="translate(0.5 0.5)"/><path class="cls-2" d="M302.58,168.2h11l-3.18,3.12v10.13c.36.06.78.1,1.26.14v-10l2.56-2.53.47.43-2.42,2.39v9.77l.77.07c1.21.11,2.37.16,3.5.16a31.66,31.66,0,0,0,4.19-.23V170.83l-2.86-2.63h10.83l-3.23,3.12v24.42l2.83,2.53H317.53l3.21-2.74v-9.94a17,17,0,0,1-4.05.47q-2,0-4.08-.21l-.33,0v9.91l3.87,4.46H304l-.61-.64h11.44l-3.19-3.49V185.29l.68.05c2.06.15,3.56.23,4.48.23a11.27,11.27,0,0,0,3.91-.61v-.84a35.07,35.07,0,0,1-5.13.33c-1.05,0-1.81,0-2.3-.07l-2.36-.22-.54,0v11.62l3,2.53H302.58l3.14-2.74V185.29a3.72,3.72,0,0,0-3.14,1.55l-.49-.24a5,5,0,0,1,3.63-1.9v-.86a4.94,4.94,0,0,0-4.15,2l-.35-.24a6,6,0,0,1,4.5-4V171.06Zm27.12,1.32-2.4,2.32v23.9l3.9,4.46H319l-.58-.64h11.41L326.72,196V171.6l2.6-2.58Z" transform="translate(0.5 0.5)"/><path class="cls-2" d="M357.56,168.2l-.37.45a23.18,23.18,0,0,0-3.8,6.73c-.16-.36-.27-.63-.35-.8a7.57,7.57,0,0,0-2.77-3.63c-1-.55-2.75-.83-5.29-.83-1.18,0-2.58,0-4.22.12V181h1.5v-9.54c1.19-.1,2.32-.16,3.4-.16A11.38,11.38,0,0,1,350,172a6,6,0,0,1,2.51,2.46,5.14,5.14,0,0,1-.47-.35,11.54,11.54,0,0,0-2.74-1.78A12.61,12.61,0,0,0,346,172q-.75,0-2.67.09l-.5,0V181h4.32l3-4.14V187l-3-3.92h-6.4v13.15h1.5V184.16h5.08l.61.61h-5.11v11.44a23.81,23.81,0,0,0,6.8-.68,5.64,5.64,0,0,0,3.16-2.67l1.25-2.13c0-.1.14-.27.28-.52a15.23,15.23,0,0,0,1.51,4.13,18.8,18.8,0,0,0,3,3.61H332.55l3.57-2.72V184.77a8.81,8.81,0,0,0-3.57,1.22l-.32-.49a8.38,8.38,0,0,1,3.89-1.34v-1.1a5.55,5.55,0,0,0-.57,0,6.38,6.38,0,0,0-4.35,1.75,4.68,4.68,0,0,1,4.92-3.75V171l-3.57-2.82Zm3.94,29.89-1.22,2.11H334.69l-.38-.64H360l.79-1.47a18.1,18.1,0,0,1-4.75-6.66l.75.28a19.09,19.09,0,0,0,4.35,6Zm-9.7-20.44V188l-.59-.31V177.34Zm6.89-7.81-.17.21a28.15,28.15,0,0,0-3.82,6.45l-.4-.49a28,28,0,0,1,4.06-6.66Z" transform="translate(0.5 0.5)"/><path class="cls-2" d="M363.09,171a23.53,23.53,0,0,1,12-3.22,14.42,14.42,0,0,1,8.19,2.16,6.41,6.41,0,0,1,3.22,5.49,6.58,6.58,0,0,1-2.11,4.81,12.34,12.34,0,0,1-5.76,3A41.12,41.12,0,0,0,383,192a28.13,28.13,0,0,0,5.57,6.47l-.35.11a31.34,31.34,0,0,0-6.85,3.38l-.35.23-.12-.75A67.76,67.76,0,0,0,376.69,186l-.1-.24a17.11,17.11,0,0,1-4.33,1.2l-.19,0v8.77l4.13,4.41H364.08l-.38-.64h11.16l-3.4-3.61v-9.44l.49-.07a15.53,15.53,0,0,0,4.48-1.06,2.41,2.41,0,0,1-.16-.35l-.24-.68a1.47,1.47,0,0,0-.12-.28,40,40,0,0,1-5.48.91l-.26.05v10.45l2.67,2.79H362.48l3-2.79v-7.87l-.19,0c-.9.21-1.72.43-2.46.68l-.18.07-.22-.47a13.88,13.88,0,0,1,1.62-.53l1.24-.31.19,0V185.8a12.81,12.81,0,0,0-3.44.61l-.26.1a11.38,11.38,0,0,1,.47-1.53c0-.06.14-.41.32-1l.08-.21c.7.05,1.25.07,1.64.07a8.56,8.56,0,0,0,1.17-.07V172.19a13.19,13.19,0,0,0-2.23-1.1Zm7.08-.61V183a6.73,6.73,0,0,0,1.29-.12V171.39a12.06,12.06,0,0,1,3.09-.35q4.57,0,6.22,3a12.54,12.54,0,0,0-3-1.93,8.26,8.26,0,0,0-3.14-.53,9.87,9.87,0,0,0-2.51.28v11.06l.26,0a15.21,15.21,0,0,0,6.85-2.67,5.77,5.77,0,0,0,2.24-4.72,5.39,5.39,0,0,0-2-4.3,7.65,7.65,0,0,0-5.09-1.7A8.63,8.63,0,0,0,370.17,170.41Zm11.32,14.06a28.07,28.07,0,0,0,5.23,9.44,24.52,24.52,0,0,0,5.93,5.18,37.32,37.32,0,0,0-10.08,4.36l-.21.14-.47-.37a33.44,33.44,0,0,1,9.54-4.31q-6.75-4.5-10.62-14.39l-.14-.4q7.17-2.73,7.17-8.3a9.09,9.09,0,0,0-1.85-5,7.1,7.1,0,0,1,2.37,5.49Q388.36,181.68,381.49,184.47Z" transform="translate(0.5 0.5)"/><path class="cls-2" d="M405.8,168.2h10.52q6.71,0,9.54,1.85a7.28,7.28,0,0,1,3.61,6.45,7.11,7.11,0,0,1-1.38,4.36,7.74,7.74,0,0,1-3.87,2.67,27.36,27.36,0,0,1-7.9.82h-2.88V195.7l2.86,2.57H405.4l3.26-2.74v-9.4l-.4,0a7.45,7.45,0,0,0-3.24.73l-.21-.43a5.91,5.91,0,0,1,2.81-.89h.85l.19,0v-1.15a6.26,6.26,0,0,0-.73-.07,6.19,6.19,0,0,0-4,1.22l-.23-.35a4.84,4.84,0,0,1,4.59-2.63h.38V171Zm22.47,2.51a5.11,5.11,0,0,1,2.3,2.47,9,9,0,0,1,.87,4c0,3.39-1.32,5.83-3.94,7.32-2,1.12-5.38,1.68-10.17,1.68-.8,0-1.47,0-2,0v9.68L419,200.2H407.25l-.63-.64h11l-3-3.47V185.52c1.36.08,2.8.12,4.33.12,4,0,7-.71,9-2.13s2.93-3.6,2.93-6.54a8.33,8.33,0,0,0-.56-3.18A12.33,12.33,0,0,0,428.27,170.71Zm-14.83-.09v11.74h.3l.61,0a2.09,2.09,0,0,0,.31,0V171.91h2.57a11.94,11.94,0,0,1,4.23.52,4.53,4.53,0,0,1,2.1,2.19,4.65,4.65,0,0,0-2.17-1.67,11,11,0,0,0-3.66-.48h-2.42v9.89q4.65,0,6.81-1.36a4.67,4.67,0,0,0,2.17-4.27,5.59,5.59,0,0,0-1.93-4.73c-1.29-1-3.37-1.48-6.23-1.48C415.4,170.52,414.5,170.55,413.44,170.62Z" transform="translate(0.5 0.5)"/><path class="cls-2" d="M454.57,168.2,452.13,171,456,181.19l.93-.52-3.46-9.23,2.48-2.86.61.26-2.37,2.74,3.28,8.74.33-.26.77-.65a7.39,7.39,0,0,0,.9-.8,16.22,16.22,0,0,0,1.87,4.78c-.45,0-.78,0-1,0a5.88,5.88,0,0,0-3.26.71l4.24,11.5,3.52,2.72H453l3.23-2.72-2.6-6.84a25.79,25.79,0,0,0-4,4.95l-.54-.14a29.39,29.39,0,0,1,4.13-5.14l.19-.23-.45-1a20.69,20.69,0,0,0-4.62,5.39l-.42-.68q-1.21-2-3.12-4.43l-.23-.28a17,17,0,0,0-1.81,6.51,5.54,5.54,0,0,0,.51,2.5,22.28,22.28,0,0,0,2.42,3.41l.52.66H433.59l-.47-.64h11.93l-.39-.49a14.76,14.76,0,0,1-2-2.92,5.79,5.79,0,0,1-.48-2.45,21.16,21.16,0,0,1,1.94-7.12l-1-1.08c-.2.5-.46,1.23-.77,2.2l-.77,2.39a10.5,10.5,0,0,0-.64,3.19,4.7,4.7,0,0,0,.45,2.18,11.43,11.43,0,0,0,1.87,2.37c.1.09.24.24.42.44H431.91a13.89,13.89,0,0,0,5.3-4.66,36.63,36.63,0,0,0,3.88-9.05l.1-.33A6.43,6.43,0,0,0,437.6,183a17,17,0,0,0,2-4l.4.37,1.06,1a12.63,12.63,0,0,0,1.29,1l.42-1-.28-.23c-.78-.69-1.44-1.25-2-1.67l-.21-.16.37-.52a17.62,17.62,0,0,1,2.39,1.9l3.19-8.76-2.48-2.68ZM447.73,173,444,182.85a32.27,32.27,0,0,1,3.07,3.61l1.08,1.5.23.31.24-.26.33-.4c0-.06.13-.16.25-.31a24.27,24.27,0,0,0-3.82-4.57l3-7.92Zm1,2.72-2.58,6.79.24.28,1,1.08a25.21,25.21,0,0,1,2,2.63l.23.35a21.31,21.31,0,0,1,2.39-2.51Zm12.73,4a24.86,24.86,0,0,0,2.58,5.79l-.59-.07-1.9-.16c-.86-.08-1.48-.12-1.87-.12l-.47,0,3.91,10.38,5.23,4.62H454.83l-.45-.64h12.45l-4.22-3.72-4.17-11a7.19,7.19,0,0,1,1.83-.21,21.06,21.06,0,0,1,2.81.21l-.28-.52a20.22,20.22,0,0,1-2-5Z" transform="translate(0.5 0.5)"/><path class="cls-2" d="M495.7,169l-4.38,8.63A9.38,9.38,0,0,0,489,172a6.65,6.65,0,0,0-5-1.94,7.93,7.93,0,0,0-6.85,3.42q-2.46,3.42-2.45,9.59,0,13.56,11.11,13.57h3.77V184.49H483.7a12.54,12.54,0,0,1-2.75-.21,3.76,3.76,0,0,1-1.61-.91v-.59a4.65,4.65,0,0,0,1.69.83,12.77,12.77,0,0,0,2.74.2h5.84v-1.26H482c-2.33,0-3.49-.85-3.49-2.53a2.55,2.55,0,0,1,.58-1.69,1.78,1.78,0,0,1,1.41-.71,1.48,1.48,0,0,1,1.07.45,1.44,1.44,0,0,1,.45,1.05q0,1-.75,1.2l-.56.12c-.19,0-.28.12-.28.23s.26.31.77.31h16.27l-3.24,3.16V195.7l3,2.57H482.93a14.32,14.32,0,0,1-4.92-.72,12.32,12.32,0,0,1-3.94-2.58q-4.71-4.32-4.71-11.56,0-7.47,4.45-11.67a13,13,0,0,1,9.24-3.68,20.85,20.85,0,0,1,5.48.85,21,21,0,0,0,4.17.86A6.72,6.72,0,0,0,495.7,169Zm-6.09,5-.42-.3a8.64,8.64,0,0,0-4.88-1.9,6.34,6.34,0,0,0-4.61,1.9,8,8,0,0,0-2,3.68,23.18,23.18,0,0,0-.62,6,21.81,21.81,0,0,0,.93,7.24,10.66,10.66,0,0,0,3.45,4.52v.26a9.18,9.18,0,0,1-3.91-4.56,21.61,21.61,0,0,1-1.2-8q0-5.55,2.09-8.63a6.67,6.67,0,0,1,5.86-3.09,6.43,6.43,0,0,1,5.34,2.72Zm8.91,8.25-2.42,2.42v11L500,200.2l-9.3-.08-8.44.1a12.08,12.08,0,0,1-1.22-.05,6.15,6.15,0,0,1-3-1.29h.5a11,11,0,0,0,4.36.71l1.17,0h14.6L495.45,196V184.49l2.69-2.72Zm-1.41-11.81-4,7.88-.56-.26,4-7.9Z" transform="translate(0.5 0.5)"/><path class="cls-2" d="M527.32,168.2l-.37.45a23.18,23.18,0,0,0-3.8,6.73c-.16-.36-.27-.63-.35-.8A7.57,7.57,0,0,0,520,171q-1.47-.82-5.3-.83c-1.17,0-2.57,0-4.21.12V181H512v-9.54c1.18-.1,2.32-.16,3.39-.16a11.4,11.4,0,0,1,4.39.63,6,6,0,0,1,2.5,2.46c-.21-.15-.37-.27-.46-.35a11.34,11.34,0,0,0-2.75-1.78,12.47,12.47,0,0,0-3.32-.28c-.5,0-1.39,0-2.68.09l-.49,0V181h4.31l3-4.14V187l-3-3.92h-6.39v13.15H512V184.16h5.08l.61.61H512.6v11.44a23.86,23.86,0,0,0,6.8-.68,5.64,5.64,0,0,0,3.16-2.67l1.24-2.13c.05-.1.15-.27.29-.52a15.23,15.23,0,0,0,1.51,4.13,18.8,18.8,0,0,0,3,3.61H502.31l3.57-2.72V184.77a8.81,8.81,0,0,0-3.57,1.22l-.33-.49a8.42,8.42,0,0,1,3.9-1.34v-1.1a5.55,5.55,0,0,0-.57,0,6.42,6.42,0,0,0-4.36,1.75,4.7,4.7,0,0,1,4.93-3.75V171l-3.57-2.82Zm3.94,29.89L530,200.2H504.45l-.38-.64h25.66l.8-1.47a18.25,18.25,0,0,1-4.76-6.66l.75.28a19.3,19.3,0,0,0,4.36,6Zm-9.71-20.44V188l-.58-.31V177.34Zm6.9-7.81-.17.21a28.15,28.15,0,0,0-3.82,6.45l-.4-.49a28,28,0,0,1,4.06-6.66Z" transform="translate(0.5 0.5)"/><path class="cls-2" d="M553.76,168.46a16.07,16.07,0,0,0-2,3.42,44.37,44.37,0,0,1-1.9,4.32l-.11.14c-.07-.18-.11-.31-.14-.4a20.65,20.65,0,0,0-1.08-2.93,5.32,5.32,0,0,0-1.27-1.57,7.07,7.07,0,0,0-4.85-1.9,6.27,6.27,0,0,0-4.17,1.39,4.39,4.39,0,0,0-1.67,3.51q0,3.93,5.93,5.36l4,1q8.46,2,8.46,8.93a8.34,8.34,0,0,1-2.9,6.45,10.3,10.3,0,0,1-7.16,2.62,25.33,25.33,0,0,1-6-.82l-2.75-.68a12,12,0,0,0-2.74-.4,5.71,5.71,0,0,0-3,.91l-.19-.33a31.32,31.32,0,0,0,4.08-8.34l.42.12a8.6,8.6,0,0,0,2.95,5.72,9.83,9.83,0,0,0,6.45,2,7.86,7.86,0,0,0,5-1.45,4.69,4.69,0,0,0,1.85-3.91,5.57,5.57,0,0,0-2.58-4.69q-1.85-1.32-7.59-2.44-4.42-.87-6.42-2.88a8.46,8.46,0,0,1,.67-11.61,10.17,10.17,0,0,1,6.92-2.31,25.33,25.33,0,0,1,6.4,1,11,11,0,0,0,2.53.47,5,5,0,0,0,2.51-.8Zm0,14.95A7.87,7.87,0,0,1,557,190a9.81,9.81,0,0,1-3.47,7.59,12.22,12.22,0,0,1-8.44,3.1,18.85,18.85,0,0,1-4.57-.51l-3.75-.92a11.51,11.51,0,0,0-2.81-.33,5.61,5.61,0,0,0-2.46.54l-.29-.68a6,6,0,0,1,2.49-.56,14.3,14.3,0,0,1,3.21.42l3.61.87a19.7,19.7,0,0,0,4.55.51,11.47,11.47,0,0,0,8-3,9.45,9.45,0,0,0,3.29-7.23,8.9,8.9,0,0,0-2.53-6.29Zm-19.62-.84.8.45q.76,1.38,4.52,2.29l3.77.94a26,26,0,0,1,5.13,1.65,3.87,3.87,0,0,1,1.81,2.1l-.16.09a7,7,0,0,0-2.29-1.78,30.49,30.49,0,0,0-4.72-1.38,36.72,36.72,0,0,1-6.8-2A3.49,3.49,0,0,1,534.14,182.57Zm2.93,7.59a8,8,0,0,0,4.64,6v.19a7.17,7.17,0,0,1-5.27-6.05Zm11.3-16a7.56,7.56,0,0,0-5.53-2.74,4.31,4.31,0,0,0-3,1,3.34,3.34,0,0,0-1.17,2.62q0,1.74,2.37,3.57l.19.11-.12.19c-2.06-.92-3.1-2.26-3.1-4a3.74,3.74,0,0,1,1.32-3,5,5,0,0,1,3.42-1.15,7.07,7.07,0,0,1,3.53.85,5.16,5.16,0,0,1,2.21,2.41Zm6.84-4.66-.21.35a33.7,33.7,0,0,0-1.64,3.09c-1.09,2.3-1.71,3.58-1.85,3.84l-.12.17-.56-.24.09-.21c.46-1,1.11-2.37,2-4l1.59-3.09.12-.19Z" transform="translate(0.5 0.5)"/></svg>