<svg id="Layer_1" data-name="Layer 1" xmlns="http://www.w3.org/2000/svg" viewBox="0 0 613 364.18"><defs><style>.cls-1{fill:#4c51a3;stroke:#fff;stroke-miterlimit:10;}.cls-2{fill:#fff;}</style></defs><rect class="cls-1" x="0.5" y="0.5" width="612" height="363.18"/><path class="cls-2" d="M63.53,124.12a28.7,28.7,0,0,0-4.91,7.15,83,83,0,0,0-3.9,11.78l-4.06,14.77.47,1.83L54,162.23H43.33l3.07-2.58-4.15-15-4,14.7,4,4.83h-12l-.47-.63H41l-3.51-4.06,4.43-16-.78-2.79L36.3,158.2l.37,1.45,2.74,2.58H28.7l3.19-2.58-6.82-24.54-3.52-3H33l-3.22,3,5.37,19.31.82-2.83-4.52-16.13,2.13-1.9.54.38-1.94,1.73,4.1,14.74,5-18.25h2.21l6.09,22.07.75-2.64L45,132.16h.65l5,18.25,2.21-7.92q2.06-7.45,2.06-9.7a4.41,4.41,0,0,0-2.34-3.94,46.37,46.37,0,0,0,5.88-2.37,27.45,27.45,0,0,0,4.69-2.69Zm1.41,1.78a27.63,27.63,0,0,0-4.63,7,71.21,71.21,0,0,0-3.72,10.88L52.45,158.9l4.5,5.25h-12l-.54-.63H55.52l-3.8-4.39L56,143.43a71.42,71.42,0,0,1,3.68-10.75,31.83,31.83,0,0,1,4.69-7.18Z" transform="translate(0.5 0.5)"/><path class="cls-2" d="M87.27,132.16l-.37.44a23.31,23.31,0,0,0-3.8,6.73c-.15-.36-.27-.63-.35-.8A7.67,7.67,0,0,0,80,134.9c-1-.55-2.75-.82-5.29-.82-1.17,0-2.58,0-4.22.12V145H72v-9.54c1.19-.11,2.32-.17,3.4-.17a11.15,11.15,0,0,1,4.38.64,5.88,5.88,0,0,1,2.51,2.46l-.47-.35a11.69,11.69,0,0,0-2.74-1.79,13,13,0,0,0-3.33-.28c-.5,0-1.39,0-2.67.1l-.5,0V145h4.32l3-4.15v10.1l-3-3.91h-6.4v13.14H72v-12h5.08l.61.61H72.55v11.43a23.44,23.44,0,0,0,6.8-.68,5.66,5.66,0,0,0,3.17-2.67l1.24-2.13c0-.09.14-.27.28-.52a15.44,15.44,0,0,0,1.51,4.13,18.8,18.8,0,0,0,3,3.61H62.27l3.56-2.72V148.73A8.48,8.48,0,0,0,62.27,150l-.33-.5a8.38,8.38,0,0,1,3.89-1.33V147a3.92,3.92,0,0,0-.56-.05,6.35,6.35,0,0,0-4.36,1.76A4.69,4.69,0,0,1,65.83,145V135l-3.56-2.81ZM91.21,162,90,164.15H64.4l-.38-.63H89.69l.79-1.48a18.1,18.1,0,0,1-4.75-6.66l.75.28a19.13,19.13,0,0,0,4.36,6Zm-9.7-20.44V152l-.59-.3V141.3Zm6.89-7.8-.17.21a27.91,27.91,0,0,0-3.82,6.44L84,140a27.6,27.6,0,0,1,4-6.66Z" transform="translate(0.5 0.5)"/><path class="cls-2" d="M91.7,132.16h11.21l-3.31,3.21v25h.19l.84.07h.21V135.6l2.54-2.55.32.51-2.27,2.32v24.61c.7.06,1.37.1,2,.1a8.34,8.34,0,0,0,5.63-1.66c1.28-1.1,2.13-2.91,2.57-5.45q2.2,6.41,4.52,8.75H91.7l3.24-2.65V135.13ZM118.47,162l-1.06,2.11H93l-.59-.63h24.8l.68-1.48a26.61,26.61,0,0,1-4.13-7.06l-.09-.25.75.28.16.4a34.8,34.8,0,0,0,3.75,6.39Z" transform="translate(0.5 0.5)"/><path class="cls-2" d="M142.61,132.88l-.26.45a67,67,0,0,0-3.65,7.36l-.22.54-.3-.17a10.26,10.26,0,0,0-2.51-5.65,6.3,6.3,0,0,0-4.76-2.08,6,6,0,0,0-5,2.6q-2.52,3.24-2.51,11,0,6.66,2.31,10.43a7.17,7.17,0,0,0,6.41,3.77,6.66,6.66,0,0,0,5.23-2.19,10.6,10.6,0,0,0,2.34-6.27c.06-.66.32-1,.79-1s.92.5.92,1.52a12.16,12.16,0,0,1-1,4.71q-2.19,5.16-9,5.16a12,12,0,0,1-9.68-4.28q-3.58-4.28-3.59-11.57a17.17,17.17,0,0,1,3.73-11.27,11.51,11.51,0,0,1,9.25-4.55,16.86,16.86,0,0,1,6,1.29,8.51,8.51,0,0,0,2.91.68,3.81,3.81,0,0,0,2.22-.68Zm.84,20.16q-.37,5.81-3.24,8.85c-1.92,2-4.59,3-8,3a12.28,12.28,0,0,1-7.29-2.41v-.19a12.92,12.92,0,0,0,7.24,2,10.12,10.12,0,0,0,7.57-3,9.1,9.1,0,0,0,2.11-3.26,17.66,17.66,0,0,0,.92-4.78l0-.54Zm-7.64-16.1a6.57,6.57,0,0,0-4-1.71q-6.07,0-6.07,11.57a23.64,23.64,0,0,0,1.41,8.78,7.52,7.52,0,0,0,4,4.54v.23q-2.78-.56-4.42-4.25a23,23,0,0,1-1.65-9.34q0-12.12,6.65-12.12a5.65,5.65,0,0,1,4.15,2Zm8.51-2.93-.26.44a72.18,72.18,0,0,0-4.08,8l-.63-.31.26-.58q1.17-2.46,2.06-4.08l1.88-3.33.23-.42Z" transform="translate(0.5 0.5)"/><path class="cls-2" d="M159.06,131.85a11,11,0,0,1,9.11,4.31q3.41,4.32,3.41,11.54,0,6.81-3.37,10.87a11.13,11.13,0,0,1-9,4.05,12.27,12.27,0,0,1-8-2.85q-5.13-4.23-5.13-12.5,0-7.08,3.51-11.25A11.76,11.76,0,0,1,159.06,131.85Zm0,2q-7.92,0-7.92,13.92,0,12.87,7.81,12.87a6,6,0,0,0,5.53-3.41c1.26-2.28,1.9-5.6,1.9-10q0-7.43-1.83-10.36A6.12,6.12,0,0,0,159.06,133.87Zm7.48-.82a11.56,11.56,0,0,1,5.3,5.53,20.14,20.14,0,0,1,1.94,9q0,7.56-3.83,12.19a12.41,12.41,0,0,1-10.07,4.64,12,12,0,0,1-7.45-2.69v-.12a13.06,13.06,0,0,0,16.95-2.3A16.86,16.86,0,0,0,173.15,148a21.88,21.88,0,0,0-1.72-9,12.35,12.35,0,0,0-4.89-5.75Zm-2.46,4.33-.4-.23a8.65,8.65,0,0,0-4.13-1.24q-6.15,0-6.16,12.11,0,8.86,3.82,11.75L157,160a9.1,9.1,0,0,1-3.34-4.37,22,22,0,0,1-1-7.33q0-13,6.85-13A5.18,5.18,0,0,1,164.08,137.38Z" transform="translate(0.5 0.5)"/><path class="cls-2" d="M207.44,132.16l-3.21,3.25v24.07l2.88,2.75H196.33l3.26-2.75V143.71l-7.43,20.44h-2.25l-.19-.63h2l7.83-21.8v-3.59l-8.72,24.07h-1.64l-6.43-18.91v12.4a12.89,12.89,0,0,0,.33,3.51,6.18,6.18,0,0,0,1.55,2.28l2.11,2.67H174.53l-.42-.63h11.51l-.87-1.29H174.3l.49-.26a8.54,8.54,0,0,0,3.43-2.9,9.67,9.67,0,0,0,.83-4.62V135.06l-3.09-2.9h12.12l-3.4,3.07,6.63,19.61.85-2-6-17.39,3.07-2.27.49.4-2.93,2.06,5.58,16.34,6-16.71-2.86-3.07Zm-26.53,5.55v16.83a13.17,13.17,0,0,0,.73,5.32A4.63,4.63,0,0,0,184.7,162l-.21-.35a5.27,5.27,0,0,1-2.29-4.6V141.44ZM208.75,134l-2.65,1.9v23.63l4.08,4.64H197.73l-.32-.63h11.34l-3.26-3.68V135.48l2.77-1.89Z" transform="translate(0.5 0.5)"/><path class="cls-2" d="M236.38,132.16l-.37.44a23.31,23.31,0,0,0-3.8,6.73c-.16-.36-.27-.63-.35-.8a7.67,7.67,0,0,0-2.77-3.63c-1-.55-2.75-.82-5.29-.82-1.18,0-2.58,0-4.22.12V145h1.5v-9.54c1.19-.11,2.32-.17,3.4-.17a11.15,11.15,0,0,1,4.38.64,5.88,5.88,0,0,1,2.51,2.46l-.47-.35a11.69,11.69,0,0,0-2.74-1.79,13.07,13.07,0,0,0-3.33-.28c-.5,0-1.39,0-2.67.1l-.5,0V145H226l3-4.15v10.1L226,147h-6.4v13.14h1.5v-12h5.08l.61.61h-5.11v11.43a23.44,23.44,0,0,0,6.8-.68,5.64,5.64,0,0,0,3.16-2.67l1.25-2.13c0-.09.14-.27.28-.52a15.11,15.11,0,0,0,1.51,4.13,18.8,18.8,0,0,0,3,3.61H211.38l3.56-2.72V148.73a8.43,8.43,0,0,0-3.56,1.22l-.33-.5a8.38,8.38,0,0,1,3.89-1.33V147a4,4,0,0,0-.56-.05,6.35,6.35,0,0,0-4.36,1.76,4.69,4.69,0,0,1,4.92-3.75V135l-3.56-2.81ZM240.32,162l-1.22,2.11H213.51l-.38-.63H238.8l.79-1.48a18.1,18.1,0,0,1-4.75-6.66l.75.28a19.13,19.13,0,0,0,4.36,6Zm-9.7-20.44V152l-.59-.3V141.3Zm6.89-7.8-.17.21a27.91,27.91,0,0,0-3.82,6.44l-.4-.49a28,28,0,0,1,4.06-6.66Z" transform="translate(0.5 0.5)"/><path class="cls-2" d="M267.89,193.47c-.14.26-.23.44-.28.54L266,196.82a20,20,0,0,0-1.52,3.75l-.05.12-.24-.17-.07-.3a6.82,6.82,0,0,0-1.93-3.7,5.92,5.92,0,0,0-3.83-1c-.7,0-1.41,0-2.11.1H256V221l2.76,2.56H248l3.28-2.74V197.48l-1.66,0a3.88,3.88,0,0,0-4.64,4.29h-.61a5.83,5.83,0,0,1,1.42-3.82,5.53,5.53,0,0,1,3.83-1.08l1.41,0h.25v-1.15a18.06,18.06,0,0,0-2.27-.14,6.34,6.34,0,0,0-4.36,1.23,5.9,5.9,0,0,0-1.48,4.16h-.28a44.15,44.15,0,0,0-3.11-7.27l-.14-.23Zm-4.78,5.13a7.58,7.58,0,0,0-4.22-1.17,8.86,8.86,0,0,0-1.12.07l.09,23.55,3.73,4.41h-12l-.54-.63H260.3l-3.14-3.59V196.82l1.27,0a10.07,10.07,0,0,1,3.22.36A2.67,2.67,0,0,1,263.11,198.6Zm6.26-3.65a26.73,26.73,0,0,0-3.4,6.84l-.09.23-.52-.44.07-.21a22.78,22.78,0,0,1,3.36-6.75l.11-.14Z" transform="translate(0.5 0.5)"/><path class="cls-2" d="M282.68,193.16a11,11,0,0,1,9.11,4.32q3.4,4.31,3.41,11.53,0,6.81-3.36,10.87a11.14,11.14,0,0,1-9,4.06,12.28,12.28,0,0,1-8-2.86q-5.13-4.22-5.13-12.49,0-7.08,3.51-11.25A11.73,11.73,0,0,1,282.68,193.16Zm0,2q-7.92,0-7.92,13.92,0,12.87,7.81,12.87a6,6,0,0,0,5.53-3.41c1.26-2.27,1.9-5.6,1.9-10q0-7.44-1.83-10.36A6.13,6.13,0,0,0,282.68,195.18Zm7.48-.82a11.61,11.61,0,0,1,5.3,5.53,20.19,20.19,0,0,1,1.94,9.05q0,7.55-3.83,12.18a12.41,12.41,0,0,1-10.07,4.65,11.91,11.91,0,0,1-7.45-2.7V223a12,12,0,0,0,7.29,2.14,12.14,12.14,0,0,0,9.66-4.43,16.89,16.89,0,0,0,3.77-11.32,21.73,21.73,0,0,0-1.72-9,12.32,12.32,0,0,0-4.89-5.74Zm-2.46,4.34-.4-.24a8.62,8.62,0,0,0-4.12-1.24q-6.17,0-6.17,12.12,0,8.85,3.82,11.74l-.21.23a9.12,9.12,0,0,1-3.34-4.37,21.87,21.87,0,0,1-1-7.32q0-13,6.84-13A5.16,5.16,0,0,1,287.7,198.7Z" transform="translate(0.5 0.5)"/><path class="cls-2" d="M354.5,248.39l-3.21,3.26v24.07l2.88,2.74H343.39l3.26-2.74V260l-7.43,20.43H337l-.19-.63h2l7.83-21.8v-3.58l-8.72,24.07h-1.64l-6.42-18.92v12.4a13,13,0,0,0,.33,3.52,6.07,6.07,0,0,0,1.54,2.27l2.11,2.67H321.59l-.42-.63h11.51l-.87-1.29H321.36l.49-.26a8.57,8.57,0,0,0,3.44-2.89,9.84,9.84,0,0,0,.83-4.63V251.3l-3.1-2.91h12.12l-3.4,3.07,6.64,19.62.84-2-6-17.39,3.07-2.27.49.39-2.93,2.07,5.58,16.33,6.05-16.71-2.86-3.07ZM328,254v16.82c0,2.58.24,4.35.74,5.32a4.55,4.55,0,0,0,3.06,2.11l-.22-.35a5.24,5.24,0,0,1-2.29-4.59V257.67Zm27.84-3.73-2.65,1.9v23.62l4.08,4.64H344.8l-.33-.63h11.34l-3.26-3.68V251.72l2.77-1.9Z" transform="translate(0.5 0.5)"/><path class="cls-2" d="M379.74,248.39l-2.44,2.77,3.85,10.22.94-.52-3.47-9.24,2.48-2.85.61.25-2.37,2.75,3.28,8.74.33-.26.78-.66a7.24,7.24,0,0,0,.89-.79,16.22,16.22,0,0,0,1.87,4.78c-.45,0-.78-.05-1-.05a6,6,0,0,0-3.26.7l4.24,11.51,3.52,2.72H378.17l3.24-2.72-2.61-6.84a26.55,26.55,0,0,0-4,4.94l-.54-.14a30.23,30.23,0,0,1,4.13-5.13l.19-.23-.45-1a20.9,20.9,0,0,0-4.62,5.4l-.42-.68q-1.22-1.95-3.11-4.43l-.24-.29a17,17,0,0,0-1.8,6.52,5.57,5.57,0,0,0,.5,2.5,23.1,23.1,0,0,0,2.43,3.41l.51.65H358.77l-.47-.63h11.93l-.4-.49a15.21,15.21,0,0,1-2-2.92,5.82,5.82,0,0,1-.48-2.45,21,21,0,0,1,1.95-7.12l-1-1.08c-.2.5-.46,1.23-.77,2.2l-.77,2.39a10.7,10.7,0,0,0-.64,3.19,4.73,4.73,0,0,0,.45,2.18,11.56,11.56,0,0,0,1.88,2.37l.42.44H357.08a14.08,14.08,0,0,0,5.31-4.66,37.59,37.59,0,0,0,3.88-9.05l.09-.33a6.48,6.48,0,0,0-3.59-1.29,16.7,16.7,0,0,0,2-4c.21.21.35.33.39.38l1.06,1a11.44,11.44,0,0,0,1.29,1.06l.42-1-.28-.24c-.78-.68-1.44-1.24-2-1.66l-.21-.16.37-.52a17.62,17.62,0,0,1,2.39,1.9l3.19-8.77-2.48-2.67Zm-6.84,4.81L369.17,263a32.27,32.27,0,0,1,3.07,3.61l1.08,1.5s.09.12.23.3a2,2,0,0,0,.24-.25l.33-.4a2.18,2.18,0,0,1,.26-.31,24.38,24.38,0,0,0-3.83-4.57l3-7.92Zm1.05,2.71-2.57,6.8c.14.16.21.25.23.28l1,1.08a22.91,22.91,0,0,1,2,2.63l.23.35a21.36,21.36,0,0,1,2.39-2.51Zm12.73,4a24.86,24.86,0,0,0,2.58,5.79l-.59-.07-1.9-.16c-.86-.08-1.48-.12-1.87-.12l-.47,0,3.91,10.39,5.23,4.61H380l-.45-.63H392L387.78,276l-4.17-11a7.19,7.19,0,0,1,1.83-.21,21.06,21.06,0,0,1,2.81.21l-.28-.51a20.78,20.78,0,0,1-2-5Z" transform="translate(0.5 0.5)"/><path class="cls-2" d="M394.37,248.39h11.11l-3.14,3.19V276l3,2.48H394.37l3.25-2.69V251.32Zm12.16,1.34-2.39,2.36V276l3.94,4.4H395.89l-.59-.63h11.4l-3.22-3.54V251.88l2.65-2.62Z" transform="translate(0.5 0.5)"/><path class="cls-2" d="M435.78,248.39a9.5,9.5,0,0,0-3.44,2.53,9.81,9.81,0,0,0-1.18,5.37v22.17h-4L416.14,257v12.73l0,1,.28,3.38a5.19,5.19,0,0,0,2.13,3.47l.19.16q-3.24-1.08-3.24-6.91l0-2.21V255.84l-1.27-2.46v13.5q0,6.42.85,8.42t4,2.9l2,2.18H408.38l-.37-.63h11.74l-1.22-1.29H407.61a6.66,6.66,0,0,0,3.8-2.76q.93-1.74.93-6V251l-3.11-2.6h11.86l-3.33,2.23,11.34,22.12v-2.81L419.38,251l3.28-2.22.44.44-2.9,2,8.9,17.48V256.48q0-4.08-.67-5.45a6.7,6.7,0,0,0-3.29-2.64Zm.82,1.73-.42.71a3.56,3.56,0,0,0-2.45,1.56,8.24,8.24,0,0,0-.64,3.83v24.16h-5l-.31-.63h4.71v-23.3a8.87,8.87,0,0,1,.86-4.6A4.71,4.71,0,0,1,436.6,250.12Z" transform="translate(0.5 0.5)"/><path class="cls-2" d="M439.18,248.39H449.7q6.71,0,9.54,1.85a7.28,7.28,0,0,1,3.61,6.45,7.11,7.11,0,0,1-1.38,4.36,7.69,7.69,0,0,1-3.87,2.67,27.31,27.31,0,0,1-7.9.82h-2.88v11.34l2.86,2.58h-10.9l3.26-2.74v-9.4a3.54,3.54,0,0,0-.4,0,7.57,7.57,0,0,0-3.23.72l-.21-.42a5.84,5.84,0,0,1,2.81-.89h.84l.19,0v-1.15a6.08,6.08,0,0,0-.73-.07,6.19,6.19,0,0,0-4,1.22l-.23-.35a4.84,4.84,0,0,1,4.59-2.63H442V251.23Zm22.48,2.51a5.09,5.09,0,0,1,2.29,2.47,9,9,0,0,1,.87,4q0,5.08-3.94,7.31-3,1.69-10.17,1.69c-.8,0-1.47,0-2-.05V276l3.68,4.36H440.63l-.63-.63h11l-3-3.47V265.71c1.36.08,2.8.12,4.34.12q6,0,9-2.13t2.93-6.54a8.33,8.33,0,0,0-.56-3.18A12.08,12.08,0,0,0,461.66,250.9Zm-14.84-.1v11.75h.3l.61,0,.31,0V252.09h2.58a11.88,11.88,0,0,1,4.23.53,4.48,4.48,0,0,1,2.1,2.19,4.7,4.7,0,0,0-2.17-1.67,11,11,0,0,0-3.67-.48H448.7v9.89c3.09,0,5.36-.46,6.8-1.36a4.67,4.67,0,0,0,2.17-4.27q0-3.26-1.93-4.73t-6.22-1.48Q448.41,250.71,446.82,250.8Z" transform="translate(0.5 0.5)"/><path class="cls-2" d="M488,248.39l-2.43,2.77,3.84,10.22.94-.52-3.47-9.24,2.48-2.85.61.25-2.37,2.75,3.29,8.74.32-.26.78-.66a7.24,7.24,0,0,0,.89-.79,16.22,16.22,0,0,0,1.87,4.78c-.45,0-.78-.05-1-.05a6,6,0,0,0-3.26.7l4.24,11.51,3.52,2.72H486.38l3.24-2.72L487,268.9a26.24,26.24,0,0,0-4,4.94l-.53-.14a29.62,29.62,0,0,1,4.12-5.13l.19-.23-.45-1a20.67,20.67,0,0,0-4.61,5.4l-.43-.68q-1.21-1.95-3.11-4.43l-.24-.29a17,17,0,0,0-1.8,6.52,5.71,5.71,0,0,0,.5,2.5,23.92,23.92,0,0,0,2.43,3.41l.51.65H467l-.47-.63h11.93l-.4-.49a15.21,15.21,0,0,1-2-2.92,5.82,5.82,0,0,1-.48-2.45,21,21,0,0,1,2-7.12l-1-1.08c-.21.5-.47,1.23-.78,2.2l-.77,2.39a10.64,10.64,0,0,0-.63,3.19,4.73,4.73,0,0,0,.44,2.18,11.56,11.56,0,0,0,1.88,2.37l.42.44H465.29a14.08,14.08,0,0,0,5.31-4.66,37.2,37.2,0,0,0,3.88-9.05l.09-.33a6.48,6.48,0,0,0-3.59-1.29,16.7,16.7,0,0,0,2-4l.4.38,1.05,1a11.44,11.44,0,0,0,1.29,1.06l.42-1-.28-.24c-.78-.68-1.44-1.24-2-1.66l-.21-.16.37-.52a18.34,18.34,0,0,1,2.4,1.9l3.18-8.77-2.48-2.67Zm-6.84,4.81L477.38,263a32.27,32.27,0,0,1,3.07,3.61l1.08,1.5s.09.12.24.3a2.43,2.43,0,0,0,.23-.25l.33-.4a3.22,3.22,0,0,1,.26-.31,24.72,24.72,0,0,0-3.82-4.57l3-7.92Zm1.05,2.71-2.57,6.8c.14.16.21.25.23.28l1,1.08a22.91,22.91,0,0,1,2,2.63l.23.35a20.68,20.68,0,0,1,2.4-2.51Zm12.73,4a24.86,24.86,0,0,0,2.58,5.79l-.59-.07-1.9-.16c-.86-.08-1.48-.12-1.87-.12l-.47,0,3.91,10.39,5.23,4.61H488.21l-.44-.63h12.44L496,276l-4.17-11a7.19,7.19,0,0,1,1.83-.21,21.06,21.06,0,0,1,2.81.21l-.28-.51a20.78,20.78,0,0,1-2-5Z" transform="translate(0.5 0.5)"/><path class="cls-2" d="M529.09,249.21l-4.39,8.63a9.35,9.35,0,0,0-2.31-5.63,6.58,6.58,0,0,0-5-1.94,8,8,0,0,0-6.85,3.42q-2.44,3.42-2.45,9.58,0,13.58,11.11,13.57H523V264.68h-5.9a12.64,12.64,0,0,1-2.76-.21,3.76,3.76,0,0,1-1.6-.92V263a4.54,4.54,0,0,0,1.68.83,13.59,13.59,0,0,0,2.75.2H523v-1.27h-7.57q-3.49,0-3.49-2.53a2.48,2.48,0,0,1,.59-1.68,1.78,1.78,0,0,1,1.4-.71,1.48,1.48,0,0,1,1.07.45,1.43,1.43,0,0,1,.46,1.05q0,1-.75,1.2l-.57.11c-.18.05-.28.13-.28.24s.26.3.77.3h16.27l-3.23,3.17v11.55l3,2.58H516.31a14.1,14.1,0,0,1-4.92-.73,12.11,12.11,0,0,1-3.94-2.57q-4.71-4.32-4.71-11.56,0-7.47,4.46-11.67a13,13,0,0,1,9.23-3.68,21.22,21.22,0,0,1,5.48.84,20.48,20.48,0,0,0,4.18.87A6.78,6.78,0,0,0,529.09,249.21Zm-6.1,5-.42-.3a8.64,8.64,0,0,0-4.87-1.9,6.37,6.37,0,0,0-4.62,1.9,8,8,0,0,0-2,3.67,23.73,23.73,0,0,0-.62,6,21.53,21.53,0,0,0,.94,7.25,10.56,10.56,0,0,0,3.44,4.52v.26a9.23,9.23,0,0,1-3.91-4.56,21.61,21.61,0,0,1-1.2-8q0-5.55,2.09-8.64a6.68,6.68,0,0,1,5.86-3.08,6.4,6.4,0,0,1,5.34,2.72Zm8.91,8.25-2.42,2.41v11l3.9,4.47-9.31-.07-8.44.1c-.53,0-.93,0-1.22-.05a6.12,6.12,0,0,1-3-1.29h.49a11,11,0,0,0,4.36.7l1.17,0h14.6l-3.23-3.59V264.68l2.69-2.72Zm-1.41-11.81-4,7.87-.56-.26,4-7.89Z" transform="translate(0.5 0.5)"/><path class="cls-2" d="M560.7,248.39l-.37.45a23.25,23.25,0,0,0-3.8,6.72c-.15-.36-.27-.62-.35-.79a7.65,7.65,0,0,0-2.77-3.64,12,12,0,0,0-5.29-.82c-1.17,0-2.58,0-4.22.12v10.78h1.5v-9.54c1.19-.11,2.32-.16,3.4-.16a11.38,11.38,0,0,1,4.38.63,5.88,5.88,0,0,1,2.51,2.46,5.14,5.14,0,0,1-.47-.35,11.54,11.54,0,0,0-2.74-1.78,12.61,12.61,0,0,0-3.33-.28q-.75,0-2.67.09l-.5,0v8.91h4.32l3-4.15v10.1l-3-3.91h-6.4V276.4h1.5v-12h5.08l.61.61H546V276.4a23.81,23.81,0,0,0,6.8-.68,5.7,5.7,0,0,0,3.17-2.67l1.24-2.14c0-.09.14-.26.28-.51a15.36,15.36,0,0,0,1.51,4.12,18.5,18.5,0,0,0,3,3.61H535.7l3.56-2.72V265a8.62,8.62,0,0,0-3.56,1.22l-.33-.49a8.27,8.27,0,0,1,3.89-1.34v-1.1l-.56-.05a6.39,6.39,0,0,0-4.36,1.76,4.69,4.69,0,0,1,4.92-3.75v-10l-3.56-2.81Zm3.94,29.88-1.22,2.11H537.83l-.38-.63h25.67l.79-1.48a18,18,0,0,1-4.75-6.65l.75.28a19.13,19.13,0,0,0,4.36,6Zm-9.7-20.43V268.2l-.59-.31V257.53Zm6.89-7.81-.17.21a27.73,27.73,0,0,0-3.82,6.45l-.39-.49a27.22,27.22,0,0,1,4-6.66Z" transform="translate(0.5 0.5)"/></svg>