<svg id="Layer_1" data-name="Layer 1" xmlns="http://www.w3.org/2000/svg" viewBox="0 0 613 364.18"><defs><style>.cls-1{fill:#4c51a3;stroke:#fff;stroke-miterlimit:10;}.cls-2{fill:#fff;}</style></defs><rect class="cls-1" x="0.5" y="0.5" width="612" height="363.18"/><path class="cls-2" d="M49.09,168.2l-.28.54-1.59,2.81a20,20,0,0,0-1.52,3.75l-.05.12-.24-.16-.07-.31a6.86,6.86,0,0,0-1.93-3.7,5.94,5.94,0,0,0-3.83-1c-.7,0-1.41,0-2.11.09h-.28v25.41L40,198.27H29.24l3.28-2.74V172.21l-1.66,0a4.94,4.94,0,0,0-3.43.95,5,5,0,0,0-1.21,3.34h-.61A5.83,5.83,0,0,1,27,172.66a5.53,5.53,0,0,1,3.83-1.08l1.41,0h.25v-1.15a20.16,20.16,0,0,0-2.27-.14,6.33,6.33,0,0,0-4.36,1.23,5.9,5.9,0,0,0-1.48,4.16h-.28A43.72,43.72,0,0,0,21,168.44l-.14-.24Zm-4.78,5.14a7.5,7.5,0,0,0-4.22-1.18,11,11,0,0,0-1.12.07l.09,23.56,3.73,4.41h-12l-.54-.64H41.5L38.36,196V171.55l1.26,0a10.15,10.15,0,0,1,3.23.36A2.72,2.72,0,0,1,44.31,173.34Zm6.26-3.66a26.9,26.9,0,0,0-3.4,6.84l-.09.24-.52-.45.07-.21A23.33,23.33,0,0,1,50,169.35l.12-.14Z" transform="translate(0.5 0.5)"/><path class="cls-2" d="M51.3,168.2h11l-3.19,3.12v10.13c.36.06.79.1,1.27.14v-10L63,169l.46.43L61,171.84v9.77l.77.07c1.21.11,2.37.16,3.5.16a31.66,31.66,0,0,0,4.19-.23V170.83L66.6,168.2H77.43l-3.23,3.12v24.42L77,198.27H66.25l3.21-2.74v-9.94a17,17,0,0,1-4,.47q-2,0-4.08-.21l-.33,0v9.91l3.87,4.46H52.75l-.61-.64H63.58l-3.19-3.49V185.29l.68.05c2.06.15,3.55.23,4.48.23a11.27,11.27,0,0,0,3.91-.61v-.84a35.07,35.07,0,0,1-5.13.33c-1,0-1.81,0-2.3-.07l-2.37-.22c-.09,0-.27,0-.54,0v11.62l3,2.53H51.3l3.14-2.74V185.29a3.71,3.71,0,0,0-3.14,1.55l-.5-.24a5,5,0,0,1,3.64-1.9v-.86a4.93,4.93,0,0,0-4.15,2l-.35-.24a6,6,0,0,1,4.5-4V171.06Zm27.11,1.32L76,171.84v23.9l3.89,4.46H67.75l-.59-.64H78.58L75.44,196V171.6L78,169Z" transform="translate(0.5 0.5)"/><path class="cls-2" d="M102.58,168.2,100.14,171,104,181.19l.94-.52-3.47-9.23,2.49-2.86.61.26-2.37,2.74,3.28,8.74.33-.26.77-.65a6.36,6.36,0,0,0,.89-.8,16.23,16.23,0,0,0,1.88,4.78c-.45,0-.78,0-1,0a5.84,5.84,0,0,0-3.25.71l4.24,11.5,3.51,2.72H101l3.23-2.72-2.6-6.84a25.79,25.79,0,0,0-4,4.95l-.54-.14a29.39,29.39,0,0,1,4.13-5.14l.18-.23-.44-1a20.69,20.69,0,0,0-4.62,5.39l-.42-.68q-1.22-2-3.12-4.43l-.23-.28a16.78,16.78,0,0,0-1.81,6.51,5.54,5.54,0,0,0,.51,2.5,22.28,22.28,0,0,0,2.42,3.41l.52.66H81.6l-.47-.64H93.06l-.4-.49a15.05,15.05,0,0,1-2-2.92,5.79,5.79,0,0,1-.48-2.45,20.92,20.92,0,0,1,1.94-7.12l-1-1.08c-.2.5-.46,1.23-.77,2.2l-.78,2.39a10.75,10.75,0,0,0-.63,3.19,4.7,4.7,0,0,0,.45,2.18,11.43,11.43,0,0,0,1.87,2.37c.09.09.24.24.42.44H79.91a13.85,13.85,0,0,0,5.31-4.66,36.63,36.63,0,0,0,3.88-9.05l.1-.33A6.43,6.43,0,0,0,85.61,183a17,17,0,0,0,2-4l.4.37,1,1a12.63,12.63,0,0,0,1.29,1l.43-1-.29-.23c-.78-.69-1.43-1.25-2-1.67l-.22-.16.38-.52a18.26,18.26,0,0,1,2.39,1.9l3.19-8.76-2.49-2.68ZM95.73,173,92,182.85a32.27,32.27,0,0,1,3.07,3.61l1.08,1.5.23.31a1.93,1.93,0,0,0,.23-.26l.33-.4.26-.31a24.65,24.65,0,0,0-3.82-4.57l3-7.92Zm1.06,2.72-2.58,6.79.24.28,1,1.08a25.21,25.21,0,0,1,2,2.63l.23.35a21.31,21.31,0,0,1,2.39-2.51Zm12.73,4a25.18,25.18,0,0,0,2.57,5.79l-.58-.07-1.9-.16c-.86-.08-1.49-.12-1.88-.12l-.46,0,3.91,10.38,5.23,4.62H102.84l-.45-.64h12.45l-4.22-3.72-4.17-11a7.17,7.17,0,0,1,1.82-.21,21.2,21.2,0,0,1,2.82.21l-.29-.52a20.15,20.15,0,0,1-2-5Z" transform="translate(0.5 0.5)"/><path class="cls-2" d="M144,168.2a9.56,9.56,0,0,0-3.45,2.53,9.91,9.91,0,0,0-1.17,5.37v22.17h-4L124.3,176.8v12.73l0,1.06.28,3.37a5.24,5.24,0,0,0,2.14,3.47l.18.16c-2.15-.71-3.23-3-3.23-6.91l0-2.2V175.66l-1.26-2.46v13.5q0,6.42.84,8.41t4,2.91l2,2.18h-12.7l-.38-.64h11.74l-1.21-1.29H115.77a6.58,6.58,0,0,0,3.8-2.76c.63-1.16.94-3.14.94-6V170.8l-3.12-2.6h11.86l-3.33,2.23,11.35,22.12v-2.81l-9.73-18.94,3.28-2.22.45.44-2.91,2,8.91,17.49V176.29c0-2.72-.23-4.54-.67-5.45a6.89,6.89,0,0,0-3.3-2.64Zm.82,1.74-.43.7a3.56,3.56,0,0,0-2.45,1.56,8.27,8.27,0,0,0-.64,3.83V200.2h-5l-.3-.64h4.71V176.27c0-2.21.28-3.74.85-4.61A4.67,4.67,0,0,1,144.77,169.94Z" transform="translate(0.5 0.5)"/><path class="cls-2" d="M146.22,168.2h11l-3.26,3.1v14.15l1.29-1.47v-12.5l2.62-2.55.36.52-2.42,2.34v11.46l7.27-8.67a5.59,5.59,0,0,0,1.57-3.38,2.33,2.33,0,0,0-.89-1.7,4.49,4.49,0,0,0-2.16-1.06v-.24h12.35v.24q-4,1-8.74,6.61l-3.26,3.86,8.65,16.81,3.94,2.55H162.34l3.07-2.29-5.81-11.63L155.78,189v6.7l3.82,4.48h-12l-.63-.64H158.2l-3-3.58v-7.27l4.08-5-.52-1-4.85,5.77v7.29l2.84,2.55H146l3.21-2.74V171Zm28.87,2.14q-3.47.22-6.91,4l-4.1,4.55,8.27,16.78L179,200.2h-14.9l-.66-.64H177l-5-3.4-8.58-17.22,4.36-4.92q3.42-3.83,7.06-4.18Z" transform="translate(0.5 0.5)"/><path class="cls-2" d="M223.28,160l.14.19-.23.26a50.62,50.62,0,0,0-6.92,8.86l-1.5,2.44-8.72,13.94v9.52l3.4,3.11H198l3.37-3.11v-9.52L195.79,177l-1.22-1.94a31.85,31.85,0,0,0-2.73-3.8,25.43,25.43,0,0,0-3.15-2.84l-.26-.21h11.84l-2.91,3,7.8,11.76.75-1.19-7-10.57,2.46-2.35.5.38-2.14,2,6.5,10,5.25-8.27c1.51-2.41,2.27-4.2,2.27-5.39,0-1-.67-2.14-2-3.42a45.73,45.73,0,0,0,11.2-4.06Zm1.06,1.41v1l-.24.23a31.91,31.91,0,0,0-3.39,3.75c-.94,1.25-2.34,3.36-4.2,6.31L208,186v9.19l4.18,5H197.52l-.28-.64H211l-3.56-4.4V185.8L216,172.16,217.4,170A38.52,38.52,0,0,1,224.34,161.36Z" transform="translate(0.5 0.5)"/><path class="cls-2" d="M234.46,167.9a11,11,0,0,1,9.11,4.31q3.41,4.32,3.41,11.53,0,6.82-3.37,10.88a11.13,11.13,0,0,1-9,4,12.21,12.21,0,0,1-8-2.86q-5.13-4.22-5.13-12.49,0-7.08,3.51-11.25A11.76,11.76,0,0,1,234.46,167.9Zm0,2q-7.92,0-7.92,13.93,0,12.85,7.8,12.86a6,6,0,0,0,5.54-3.41q1.89-3.4,1.89-10,0-7.42-1.82-10.36A6.14,6.14,0,0,0,234.46,169.91Zm7.48-.82a11.59,11.59,0,0,1,5.29,5.53,20.06,20.06,0,0,1,2,9q0,7.54-3.83,12.19a12.44,12.44,0,0,1-10.07,4.64,11.89,11.89,0,0,1-7.45-2.7v-.11a13,13,0,0,0,16.94-2.3,16.83,16.83,0,0,0,3.78-11.32,21.8,21.8,0,0,0-1.73-9,12.3,12.3,0,0,0-4.88-5.74Zm-2.46,4.34-.4-.23A8.67,8.67,0,0,0,235,172q-6.16,0-6.16,12.12,0,8.87,3.82,11.74l-.21.24a9.1,9.1,0,0,1-3.34-4.37,21.69,21.69,0,0,1-1-7.33q0-13,6.85-13A5.2,5.2,0,0,1,239.48,173.43Z" transform="translate(0.5 0.5)"/><path class="cls-2" d="M278.17,168.2,274,171.55V186.7a46.35,46.35,0,0,1-.27,6,7.24,7.24,0,0,1-1.07,3q-2,3-7.83,3-6.13,0-8.58-3-1.94-2.37-1.94-9.08V171.06l-3.19-2.86h11.06L259,171.32v15.33l0,3.61q0,3.5,1.46,5t4.9,1.47q3.8,0,5.22-2.23,1.15-1.8,1.15-7.73l.09-15.17-3.65-3.35Zm.8,1.6-3.19,2.65V187q0,7.16-1.12,9.33-2.31,4.41-9,4.4-5.76,0-8.67-2.88l.19.1.82.46a14.45,14.45,0,0,0,7.4,1.69q6.46,0,8.58-4.08,1.13-2.21,1.12-8.86v-15l3.5-2.86Zm-15.82-.33-2.3,2.32V189.2l0,1.62.72,3a9.83,9.83,0,0,0,2,2.15l.05.21a4.89,4.89,0,0,1-2.72-2.32,11.16,11.16,0,0,1-.75-4.71V171.55l2.65-2.57Z" transform="translate(0.5 0.5)"/><path class="cls-2" d="M292.94,168.2h24.33a29.76,29.76,0,0,0-2.08,3,31,31,0,0,0-1.58,3.54l-.19.46a9.86,9.86,0,0,0-3.06-4.12q-1.5-.95-5.09-.94l-1.34,0-2.27,0-.87,0v11h1.43v-9.68l.68,0c1,0,2-.07,3.09-.07q4.78,0,6,2.49a6,6,0,0,0-2.5-1.49,16.2,16.2,0,0,0-4.16-.39c-.67,0-1.51,0-2.51.12v9.05h3.54l3.75-4V187l-3.93-3.89h-5.37V194.9l3,3H292.28l3.82-3V184.82a4.31,4.31,0,0,0-3.16,1.36l-.45-.49a4.64,4.64,0,0,1,3.61-1.5v-1.1a6,6,0,0,0-.7-.05,4.93,4.93,0,0,0-3.78,1.78l-.16-.37a4.82,4.82,0,0,1,4.64-3.33v-9.89Zm14.67,16.85H302.8v10l4.13,5.11H293.36l-.59-.64h12.85l-3.4-4.19v-11h4.71ZM311.8,178V188.1l-.6-.35V177.62Zm7.25-8.35a19.11,19.11,0,0,0-4.22,7.17l-.49-.32a16.18,16.18,0,0,1,4.28-7.25Z" transform="translate(0.5 0.5)"/><path class="cls-2" d="M332,167.9a11,11,0,0,1,9.11,4.31q3.41,4.32,3.41,11.53,0,6.82-3.37,10.88a11.13,11.13,0,0,1-9,4,12.21,12.21,0,0,1-8-2.86q-5.13-4.22-5.13-12.49,0-7.08,3.51-11.25A11.76,11.76,0,0,1,332,167.9Zm0,2q-7.92,0-7.92,13.93,0,12.85,7.8,12.86a6,6,0,0,0,5.54-3.41q1.89-3.4,1.89-10,0-7.42-1.82-10.36A6.14,6.14,0,0,0,332,169.91Zm7.48-.82a11.59,11.59,0,0,1,5.29,5.53,20.06,20.06,0,0,1,1.95,9q0,7.54-3.83,12.19a12.44,12.44,0,0,1-10.07,4.64,11.91,11.91,0,0,1-7.45-2.7v-.11a13,13,0,0,0,16.94-2.3,16.83,16.83,0,0,0,3.78-11.32,21.8,21.8,0,0,0-1.73-9,12.3,12.3,0,0,0-4.88-5.74Zm-2.46,4.34-.4-.23a8.67,8.67,0,0,0-4.13-1.25q-6.16,0-6.16,12.12,0,8.87,3.82,11.74l-.21.24a9.1,9.1,0,0,1-3.34-4.37,21.69,21.69,0,0,1-1-7.33q0-13,6.85-13A5.2,5.2,0,0,1,337.05,173.43Z" transform="translate(0.5 0.5)"/><path class="cls-2" d="M349.94,171a23.47,23.47,0,0,1,11.95-3.22,14.42,14.42,0,0,1,8.19,2.16,6.41,6.41,0,0,1,3.22,5.49,6.61,6.61,0,0,1-2.1,4.81,12.38,12.38,0,0,1-5.77,3,41.6,41.6,0,0,0,4.39,8.67,28.37,28.37,0,0,0,5.57,6.47l-.35.11a31.05,31.05,0,0,0-6.84,3.38l-.36.23-.11-.75a67.21,67.21,0,0,0-4.2-15.37l-.09-.24a17.32,17.32,0,0,1-4.34,1.2l-.19,0v8.77L363,200.2H350.92l-.37-.64H361.7L358.3,196v-9.44l.5-.07a15.45,15.45,0,0,0,4.47-1.06,2.41,2.41,0,0,1-.16-.35l-.23-.68-.12-.28a40.49,40.49,0,0,1-5.49.91L357,185v10.45l2.67,2.79H349.33l3.05-2.79v-7.87l-.19,0a25.06,25.06,0,0,0-2.46.68l-.19.07-.21-.47a13.29,13.29,0,0,1,1.62-.53l1.24-.31.19,0V185.8a12.81,12.81,0,0,0-3.45.61l-.26.1a11.38,11.38,0,0,1,.47-1.53q0-.09.33-1l.07-.21c.7.05,1.25.07,1.64.07a8.56,8.56,0,0,0,1.17-.07V172.19a13.19,13.19,0,0,0-2.23-1.1Zm7.08-.61V183a6.55,6.55,0,0,0,1.28-.12V171.39a12.15,12.15,0,0,1,3.1-.35q4.58,0,6.21,3a12.35,12.35,0,0,0-3.05-1.93,8.22,8.22,0,0,0-3.14-.53,9.92,9.92,0,0,0-2.51.28v11.06l.26,0a15.26,15.26,0,0,0,6.86-2.67,5.8,5.8,0,0,0,2.24-4.72,5.4,5.4,0,0,0-2-4.3,7.63,7.63,0,0,0-5.09-1.7A8.56,8.56,0,0,0,357,170.41Zm11.32,14.06a27.87,27.87,0,0,0,5.22,9.44,24.52,24.52,0,0,0,5.93,5.18,37.32,37.32,0,0,0-10.08,4.36l-.21.14-.47-.37a33.56,33.56,0,0,1,9.54-4.31q-6.75-4.5-10.61-14.39l-.14-.4q7.17-2.73,7.17-8.3a9.17,9.17,0,0,0-1.85-5,7.13,7.13,0,0,1,2.36,5.49Q375.2,181.68,368.34,184.47Z" transform="translate(0.5 0.5)"/><path class="cls-2" d="M422.62,160.8l.26.25a28.69,28.69,0,0,0-5,6.33,77.75,77.75,0,0,0-4.66,10.55l-6.85,17.91,2.79,2.43h-10.8l3.09-2.55-8.58-24.42-3.61-3.1h11.63l-3.31,3.31,7.74,22,.91-2.18-6.91-19.5,2.39-2.37.42.44L400,172l6.5,18.54,5-13.27q2.24-5.91,2.23-8.27a5.52,5.52,0,0,0-1.76-4.1l.45-.1Q419.23,163.48,422.62,160.8Zm1.26,1.43.21.54q-4.47,3.48-9.23,15.93l-6.61,17.23,3.66,4.27h-12.1l-.51-.64h11.22l-2.95-3.47,6.73-17.55,1.26-3.33a45.52,45.52,0,0,1,4-7.89A19.45,19.45,0,0,1,423.88,162.23Z" transform="translate(0.5 0.5)"/><path class="cls-2" d="M421.07,168.2h11.11L429,171.39v24.4l2.95,2.48H421.07l3.26-2.69V171.13Zm12.16,1.34-2.39,2.37v23.88l3.94,4.41H422.59l-.58-.64H433.4L430.19,196V171.7l2.65-2.63Z" transform="translate(0.5 0.5)"/><path class="cls-2" d="M461.15,168.2l-.38.45a23.15,23.15,0,0,0-3.79,6.73l-.36-.8a7.56,7.56,0,0,0-2.76-3.63q-1.47-.82-5.3-.83c-1.17,0-2.58,0-4.22.12V181h1.5v-9.54c1.19-.1,2.32-.16,3.4-.16a11.31,11.31,0,0,1,4.38.63,5.94,5.94,0,0,1,2.51,2.46c-.22-.15-.37-.27-.47-.35a11.34,11.34,0,0,0-2.74-1.78,12.51,12.51,0,0,0-3.33-.28q-.75,0-2.67.09l-.49,0V181h4.31l3-4.14V187l-3-3.92h-6.4v13.15h1.5V184.16h5.09l.61.61h-5.11v11.44a23.86,23.86,0,0,0,6.8-.68,5.68,5.68,0,0,0,3.16-2.67l1.24-2.13c.05-.1.14-.27.28-.52a15.21,15.21,0,0,0,1.52,4.13,18.69,18.69,0,0,0,3,3.61H436.14l3.56-2.72V184.77a8.77,8.77,0,0,0-3.56,1.22l-.33-.49a8.42,8.42,0,0,1,3.89-1.34v-1.1a5.24,5.24,0,0,0-.56,0,6.4,6.4,0,0,0-4.36,1.75A4.69,4.69,0,0,1,439.7,181V171l-3.56-2.82Zm3.94,29.89-1.22,2.11h-25.6l-.37-.64h25.66l.8-1.47a18.13,18.13,0,0,1-4.76-6.66l.75.28a19.13,19.13,0,0,0,4.36,6Zm-9.71-20.44V188l-.58-.31V177.34Zm6.89-7.81-.16.21a27.78,27.78,0,0,0-3.82,6.45l-.4-.49a28,28,0,0,1,4.06-6.66Z" transform="translate(0.5 0.5)"/><path class="cls-2" d="M505.16,160.16a29.16,29.16,0,0,0-4.91,7.15,83.71,83.71,0,0,0-3.9,11.79l-4.05,14.77.47,1.83,2.88,2.57H485L488,195.7l-4.15-15-4,14.7,4,4.83h-12l-.47-.64h11.15l-3.51-4.05,4.43-16-.78-2.79-4.8,17.55.37,1.46,2.75,2.57H470.34l3.18-2.57-6.82-24.54-3.51-3h11.46l-3.21,3,5.36,19.31.82-2.84-4.52-16.12,2.13-1.9.54.37-1.94,1.74,4.1,14.74,5-18.26h2.2l6.09,22.08.75-2.65L486.6,168.2h.66l5,18.26,2.2-7.92c1.38-5,2.06-8.2,2.06-9.7a4.4,4.4,0,0,0-2.34-3.94,45.78,45.78,0,0,0,5.88-2.37,27.32,27.32,0,0,0,4.69-2.69Zm1.41,1.79a27.9,27.9,0,0,0-4.63,7,70.09,70.09,0,0,0-3.71,10.87L494.08,195l4.5,5.25h-12l-.53-.64h11.13l-3.8-4.38,4.31-15.7a72.57,72.57,0,0,1,3.68-10.75,32,32,0,0,1,4.69-7.18Z" transform="translate(0.5 0.5)"/><path class="cls-2" d="M503.5,168.2h11.11l-3.14,3.19v24.4l2.95,2.48H503.5l3.26-2.69V171.13Zm12.16,1.34-2.39,2.37v23.88l3.94,4.41H505l-.58-.64h11.39L512.62,196V171.7l2.65-2.63Z" transform="translate(0.5 0.5)"/><path class="cls-2" d="M544.91,168.2a9.5,9.5,0,0,0-3.44,2.53,9.91,9.91,0,0,0-1.17,5.37v22.17h-4L525.27,176.8v12.73l0,1.06.28,3.37a5.19,5.19,0,0,0,2.13,3.47l.19.16c-2.15-.71-3.23-3-3.23-6.91l0-2.2V175.66l-1.26-2.46v13.5q0,6.42.84,8.41t4,2.91l2,2.18h-12.7l-.38-.64h11.74l-1.22-1.29H516.74a6.62,6.62,0,0,0,3.8-2.76c.62-1.16.94-3.14.94-6V170.8l-3.12-2.6h11.86l-3.33,2.23,11.34,22.12v-2.81l-9.72-18.94,3.28-2.22.44.44-2.9,2,8.9,17.49V176.29q0-4.08-.66-5.45a6.89,6.89,0,0,0-3.3-2.64Zm.82,1.74-.42.7a3.56,3.56,0,0,0-2.45,1.56,8.27,8.27,0,0,0-.64,3.83V200.2h-5l-.3-.64h4.71V176.27c0-2.21.28-3.74.85-4.61A4.67,4.67,0,0,1,545.73,169.94Z" transform="translate(0.5 0.5)"/><path class="cls-2" d="M573.51,169l-4.39,8.63a9.43,9.43,0,0,0-2.3-5.63,6.65,6.65,0,0,0-5-1.94A8,8,0,0,0,555,173.5q-2.44,3.42-2.45,9.59,0,13.56,11.11,13.57h3.77V184.49h-5.9a12.71,12.71,0,0,1-2.76-.21,3.73,3.73,0,0,1-1.6-.91v-.59a4.5,4.5,0,0,0,1.69.83,12.71,12.71,0,0,0,2.74.2h5.83v-1.26h-7.57c-2.32,0-3.49-.85-3.49-2.53a2.56,2.56,0,0,1,.59-1.69,1.78,1.78,0,0,1,1.4-.71,1.47,1.47,0,0,1,1.07.45,1.45,1.45,0,0,1,.46,1.05q0,1-.75,1.2l-.57.12c-.18,0-.28.12-.28.23s.26.31.78.31h16.26l-3.23,3.16V195.7l3,2.57H560.73a14.36,14.36,0,0,1-4.92-.72,12.29,12.29,0,0,1-3.93-2.58q-4.73-4.32-4.72-11.56,0-7.47,4.46-11.67a13,13,0,0,1,9.23-3.68,20.91,20.91,0,0,1,5.49.85,21,21,0,0,0,4.17.86A6.78,6.78,0,0,0,573.51,169Zm-6.1,5-.42-.3a8.62,8.62,0,0,0-4.87-1.9,6.38,6.38,0,0,0-4.62,1.9,8.13,8.13,0,0,0-2,3.68,23.63,23.63,0,0,0-.62,6,21.51,21.51,0,0,0,.94,7.24,10.56,10.56,0,0,0,3.44,4.52v.26a9.23,9.23,0,0,1-3.91-4.56,21.61,21.61,0,0,1-1.2-8q0-5.55,2.09-8.63a6.67,6.67,0,0,1,5.86-3.09,6.4,6.4,0,0,1,5.34,2.72Zm8.91,8.25-2.41,2.42v11l3.89,4.48-9.31-.08-8.44.1a11.85,11.85,0,0,1-1.21-.05,6.11,6.11,0,0,1-3-1.29h.49a11,11,0,0,0,4.36.71l1.17,0h14.6L573.25,196V184.49l2.7-2.72Zm-1.41-11.81-4,7.88-.57-.26,4-7.9Z" transform="translate(0.5 0.5)"/></svg>