<svg id="Layer_1" data-name="Layer 1" xmlns="http://www.w3.org/2000/svg" viewBox="0 0 79.1 140.23"><defs><style>.cls-1{fill:#f78e1e;}</style></defs><path class="cls-1" d="M338.63,312.63q0,24.31-19.62,35.64-14.75,8.4-16,17c-.2,1.5-.36,3-.49,4.5-.45,1.36-1.62,2.05-3.51,2.05q-9.87,0-14.16,1.17a4.85,4.85,0,0,1-1.37.29q-3.51,0-3.52-9.57,0-8.29,9.62-20.56t9.62-20.55q0-12.6-13.38-12.6-8.49,0-22.07,6.64-4.2,0-4.2-24.9a20.68,20.68,0,0,1,.3-4.1q1.37-6.54,16.3-10.16a88.32,88.32,0,0,1,20.9-2.64q17.69,0,29.3,9.87Q338.63,295.14,338.63,312.63Zm-26.46,84a18.19,18.19,0,0,1-5.22,13,17.58,17.58,0,0,1-25.49,0,18.15,18.15,0,0,1-5.23-13,17.65,17.65,0,0,1,5.23-12.84,17.93,17.93,0,0,1,25.49,0A17.68,17.68,0,0,1,312.17,396.61Z" transform="translate(-259.53 -274.83)"/></svg>