<svg id="Layer_1" data-name="Layer 1" xmlns="http://www.w3.org/2000/svg" viewBox="0 0 350.79 227.02"><defs><style>.cls-1{fill:#231f20;}</style></defs><path class="cls-1" d="M136.69,168.18v20.3h23.48v-20.3h6.33v48.53h-6.33V194H136.69v22.76h-6.26V168.18Z" transform="translate(-127.11 -165.58)"/><path class="cls-1" d="M180.68,200.43c.15,8.57,5.62,12.1,12,12.1a22.84,22.84,0,0,0,9.64-1.8l1.08,4.54a28.15,28.15,0,0,1-11.59,2.16c-10.73,0-17.14-7.06-17.14-17.57s6.2-18.8,16.35-18.8c11.38,0,14.4,10,14.4,16.42a24.32,24.32,0,0,1-.21,3Zm18.58-4.53c.07-4-1.66-10.3-8.78-10.3-6.41,0-9.22,5.91-9.73,10.3Z" transform="translate(-127.11 -165.58)"/><path class="cls-1" d="M213.23,165.58h6.33v51.13h-6.33Z" transform="translate(-127.11 -165.58)"/><path class="cls-1" d="M230.22,165.58h6.33v51.13h-6.33Z" transform="translate(-127.11 -165.58)"/><path class="cls-1" d="M278.75,199c0,12.89-8.93,18.51-17.36,18.51-9.43,0-16.7-6.91-16.7-17.93,0-11.66,7.63-18.51,17.28-18.51C272,181.06,278.75,188.34,278.75,199Zm-27.65.36c0,7.64,4.39,13.4,10.58,13.4s10.59-5.69,10.59-13.54c0-5.9-3-13.39-10.44-13.39S251.1,192.73,251.1,199.35Z" transform="translate(-127.11 -165.58)"/><path class="cls-1" d="M137.77,263.79c-4.32,7.13-9.36,12.32-10.08,12.32a.69.69,0,0,1-.58-.58,1.34,1.34,0,0,1,.29-.65A73.24,73.24,0,0,0,137.27,259c2.66-6,4.75-11.74,5.18-16.56l4.11.79c.86.15,1.29.51,1.29,1,0,.29,0,1-1,1-.57,0-.93.14-.93.43A84.14,84.14,0,0,1,140.36,259c2.24.72,2.52.79,2.52,1.29,0,.29-.21.58-.72.8s-.79.64-.79.93v45.73a1,1,0,0,1-.86.93c-2.38.51-2.74.58-2.74-.93Zm34.85,39.46c0,1.73-1.08,4.83-6.62,6.12,0-2.81-3.89-4-6.48-4.89a.63.63,0,0,1-.51-.65c0-.29.29-.43.65-.43,3.39.36,5.91.57,7.35.57s1.94,0,1.94-1.44v-44h-13.1c-3.17,5.4-7.93,10.29-8.72,10.29a.56.56,0,0,1-.57-.57,1.89,1.89,0,0,1,.28-.72,54.88,54.88,0,0,0,7.64-11.88c2.3-5.12,3.67-8.72,4-13l4.1.93c.87.15,1.3.51,1.3,1a1,1,0,0,1-1.08,1c-.58,0-.94.14-.94.29a60.29,60.29,0,0,1-4.82,10.51h30.17l2.09-2.45,2.73,3.1a2.17,2.17,0,0,1,.94,1.58c0,1.22-.86,1.22-2,1.22a2,2,0,0,0-1.51.58l-6.05,8.14a.61.61,0,0,1-.43.21.76.76,0,0,1-.72-.72v-.21a39.08,39.08,0,0,0,4.39-9.36h-14Zm-15.48-31,4.32,1.8c.58.29.94.72.94,1.08a1.06,1.06,0,0,1-1.15.93l-.8.29c-3.24,10.44-10.65,22.83-11.73,22.83a.76.76,0,0,1-.72-.72.65.65,0,0,1,.07-.36,71.59,71.59,0,0,0,8.71-22.9Zm22,1.58a.85.85,0,0,1,.8-.79.61.61,0,0,1,.5.29c7.56,10.29,10.94,19.37,10.94,22.54s-1.65,3.45-2.08,3.45a1.61,1.61,0,0,1-1.66-1.65,53.8,53.8,0,0,0-8.35-23.41A1,1,0,0,1,179.1,273.8Z" transform="translate(-127.11 -165.58)"/><path class="cls-1" d="M203.29,289.93C203,291,202.5,291,200.12,291c-.29-.07-.43-.29-.43-.72a3.13,3.13,0,0,1,.29-1.22A200.31,200.31,0,0,0,206.75,266l.79-4.25h-7.63l-.51-2.16H208l2.16-13.17.15-3.31,4.1.93c.79.15,1.23.51,1.23,1a1.22,1.22,0,0,1-.87,1.15c-.65.29-1.08.65-1.08,1.08l-2.3,12.31h8.21l2.16-2.44,3.45,3.24a1,1,0,0,1,.44.79,1.62,1.62,0,0,1-1.44,1.58c-.58.08-1,.36-1.08.79-1.37,12.68-3,20.31-6.63,27.44,3.67,2.81,6.12,5.4,7.27,7.63l.36,1.87a1.46,1.46,0,0,1-1.58,1.52A1.79,1.79,0,0,1,221,301a53,53,0,0,0-5.9-7.42,40.53,40.53,0,0,1-5.9,8,37.33,37.33,0,0,1-9.08,7,.84.84,0,0,1-.72-.79.79.79,0,0,1,.22-.51,42.13,42.13,0,0,0,13.1-16,33.93,33.93,0,0,0-8.06-5.4ZM205,284.6a36.39,36.39,0,0,1,8.71,4.54c3.75-8.86,5.19-18.65,5.91-26.28l.21-1.16h-8.93l-1.51,6.56Zm51.92-37.73,3.38-2.09,2.95,3a2.39,2.39,0,0,1,.36,1c0,.51-.57.8-1.37.8a2.37,2.37,0,0,0-1.65.57,58.59,58.59,0,0,1-13.32,11.09l.14.5a1.07,1.07,0,0,1-1,1.16c-.72.14-1,.43-1,.86v10.44h11.31l4.54-3.81,4.6,3.45a1.42,1.42,0,0,1,.51,1.08,1.44,1.44,0,0,1-1.59,1.44H245.41v27.8a4.18,4.18,0,0,1-1.51,2.8c-1,.94-2.88,1.66-5.47,1.95,0-2.45-2.88-3.53-4.61-4.25-.57-.07-.79-.36-.79-.72s.36-.5.94-.5l6.12.5c1.72-.29,1.8-.29,1.8-1.15V276.32H225.4l-.58-2.16h17.07V260l3.52.5A61.18,61.18,0,0,0,257.15,249H226.33l-1.15-2.16Z" transform="translate(-127.11 -165.58)"/><path class="cls-1" d="M147.92,357.54c-4.39,4.46-7,9.72-7,14.4,0,6.62,5.33,12,18.22,12,9.07,0,15.19-.86,16.85-2.37,4.53.57,7.13,1.58,7.13,3.38,0,2.59-9.37,2.95-23.26,2.95-18.51,0-22-8.92-22-13.82,0-5.19,1.59-11,9.08-17.57Zm19.59-14.76c-6.7.93-14.91,3.09-19.15,3.09s-6.92-3.24-7.06-5.76a2.83,2.83,0,0,1,.79-1.94l.51.07c.14,1.37,1.94,3.82,7.63,3.82,5.4,0,18.5-2,19.94-3.53,5.84,1,7.06,2.52,7.06,4.46,0,1.08-2,1.66-3.74,1.8-4.76.22-14.12,5-19.52,8l-.93-1.16c3.53-2.81,10.58-6.41,14-8.49Z" transform="translate(-127.11 -165.58)"/><path class="cls-1" d="M213.23,370.79c4.1-5,10.22-10.08,16.34-10.08,4.47,0,9.29,2.37,9.29,10.72,0,3.24-.29,6.49-.29,8.86,0,4.75,3.6,6.91,7.71,6.91,8.64,0,14.26-6.48,18-17.85l1.44.5c-3.17,14.19-9.58,21.46-19.37,21.46-7.49,0-11.81-3.67-11.81-10.95,0-2.59.29-6.33.29-8.28,0-7.27-1.22-9.14-6.26-9.14s-11.81,5.9-15.92,12.89c-2.45,4.25-3.74,9.86-4.75,13.1-.65,2-1.51,2.45-3,2.45-.94,0-2.38-1.15-2.38-3.24a8.81,8.81,0,0,1,1.37-4.1c1.37-1.88,4-9.08,7.7-17.72,4.32-9.93,11.16-23.9,12.17-27a5.54,5.54,0,0,0,.36-1.94c0-1.52-.93-2.67-4.68-2.38l-.22-.22a4.54,4.54,0,0,1,4-2.44c3.45,0,7.63,1.8,7.63,5,0,1.23-1.87,1.88-3.46,4.4A216.2,216.2,0,0,0,213,370.64Z" transform="translate(-127.11 -165.58)"/><path class="cls-1" d="M291.92,364.67c-3.81,7.92-7.63,16.7-7.63,19.22,0,1.08.79,2.52.79,4.39,0,2.09-.93,2.38-1.44,2.38-3.16,0-6.55-6-6.55-18.94,0-10.94,2.88-20.09,4-26.5a18.53,18.53,0,0,0,.29-3.38c0-5-3.38-5.83-3.89-5.9l-.07-.65a4,4,0,0,1,2.67-.87c4.1,0,7.05,4.25,7.05,6.7,0,1.94-1.08,3-1.44,4-5.4,13.75-5.4,22.9-5.4,25.85,0,4.54.43,7,.94,8.28l.72-.29c.93-1.58,5.83-10.22,8.35-15Zm14.19-1.95c-3.31,3.46-5.9,7.35-5.9,11.31,0,6.26,4.46,8.28,14.68,8.28a47.9,47.9,0,0,0,12.46-1.3c3.82.51,5.11,1.95,5.11,3.1,0,1.65-2.16,2.09-15.91,2.09-13.1,0-19.37-3.17-19.37-11.74,0-5,3.67-9.36,7.35-13Zm-7.42-18.29a30.8,30.8,0,0,0,7.2.65c3.68,0,11.16-1.15,14.91-2.74,1.22-.5,2.66-1.51,3.17-1.51,2.23,0,5.54.79,5.54,2.59,0,1.44-2.52,1.88-5.33,2.45a102,102,0,0,1-16.41,2c-3,0-6.77-.15-9.44-2.09Z" transform="translate(-127.11 -165.58)"/><path class="cls-1" d="M387.18,338.31a7.46,7.46,0,0,0,3.1.36c3,0,4.9.15,4.9,2,0,1.44-1.45,1.87-5.48,3.17A163.41,163.41,0,0,1,368,348.18c-.94,5.4-2.45,14.54-2.81,18.29,0,.36-.07.57-.07.86,0,1.58.79.86,1,1.37,6.4-4.54,15.19-7.78,21.53-7.78,10.37,0,15.33,6.12,15.33,14.48,0,11.3-14.33,16.92-37.8,17.2l-.36-1.8c21.24-1.22,33.63-6.4,33.63-15.48,0-7.34-2.74-12-11.45-12-7.49,0-15.19,4-20.31,9.21-.57.65-.79,2.6-2.45,2.6a4.61,4.61,0,0,1-4.17-4.4c0-1.44.72-1.87,1.29-3.45.94-2.74,2.09-12.82,3.17-18.72-2.81.28-5.11.43-7.05.43-6.41,0-8.72-2.74-9.44-5.69l1.08-.72c1.73,2.59,3.68,3.46,8.5,3.46,1.8,0,4.61-.22,7.34-.51a54.45,54.45,0,0,0,1.23-8.71c0-2.23-.43-3.31-2.52-3.31a12.81,12.81,0,0,0-2.52.36l-.15-.15a4.43,4.43,0,0,1,4.32-3c2.67,0,6.92.86,6.92,3.17,0,1.44-1.08,1.87-1.8,4.25-.43,1.44-1.16,4.39-1.73,6.91a65.91,65.91,0,0,0,15.05-3.24c2.09-.79,3-1.73,2.81-2.88Z" transform="translate(-127.11 -165.58)"/><path class="cls-1" d="M422.46,335.86a4.07,4.07,0,0,1,2.74-1.15c2.52,0,6.48,3.24,6.48,6.55,0,1.52-1,2.09-1.59,3.24A61.81,61.81,0,0,0,423.61,372c0,4.75,1.08,8.43,2.16,8.43s6.41-10.88,8.57-15.34l1.58.65c-3.31,8.06-7.12,17-7.12,18.5,0,1.3.64,2.23.64,4.11,0,1.29-.57,2.52-1.58,2.52-2.81,0-7.27-6.41-7.27-18.37,0-8.28,2.16-18,3.81-24.05a31.11,31.11,0,0,0,1.44-7.7c0-2.3-.57-4.25-3.31-4.61Zm31.9-.72a3.67,3.67,0,0,1,3.81-2.44c3,0,6.85,1.94,6.92,4a5.58,5.58,0,0,1-1.08,2.59c-.44.79-.44,3.24-.51,5.76-.07,1.8-.21,3.6-.28,5.33,5.68-1,7.48-1.52,8.28-3.75,3.67.22,6.19.72,6.19,2.38s-1.8,2-5.33,2.95a83.19,83.19,0,0,1-9.14,1.59c0,2.8.14,5.25.14,7.2a75.4,75.4,0,0,0,1.29,14.76,34.83,34.83,0,0,1,11,6.77c1.58,1.44,2.3,2.59,2.3,4.24a2,2,0,0,1-1.94,2c-.65,0-1.66-.72-2.74-2.09a28.46,28.46,0,0,0-8.28-7c.08,1.22.08,3.09.08,4.1-.08,5-3.68,7.85-10.73,7.85-8.64,0-13.83-4-13.83-9.36s5.55-8.57,13.18-8.57a28.78,28.78,0,0,1,7.13.86,96.1,96.1,0,0,1-.72-11.3c0-1.87-.22-5.33-.29-9a66.83,66.83,0,0,1-9.29.72,12.22,12.22,0,0,1-9.43-4.11l.79-1.22a12.28,12.28,0,0,0,8.06,2.45,57.35,57.35,0,0,0,9.87-.87v-5.47c0-8.28-.22-10.15-3.89-10.15a9.08,9.08,0,0,0-1.3.07Zm6.7,42.49a18.66,18.66,0,0,0-7.57-1.73c-5.9,0-10.44,2.16-10.44,6.05s4.25,5.9,10.59,5.9c5.54,0,7.49-1.94,7.49-7C461.13,379.93,461.13,378.92,461.06,377.63Z" transform="translate(-127.11 -165.58)"/></svg>