<svg xmlns="http://www.w3.org/2000/svg" viewBox="0 0 184.07 226.12"><defs><style>.cls-1{fill:#f9f9fa;}.cls-2{fill:gray;}.cls-3{fill:#fff;}</style></defs><g id="Layer_1" data-name="Layer 1"><polygon class="cls-1" points="25.73 189.05 99.14 182.77 84.65 162.7 182.08 101.8 172.32 86.91 74.46 148.08 78.06 153.56 56.4 123.58 25.73 189.05"/></g><g id="Layer_2" data-name="Layer 2"><polygon class="cls-2" points="168.88 29.27 95.8 38.89 111.15 58.27 16.45 123.55 26.84 137.98 121.97 72.41 118.14 67.1 141.07 96.07 168.88 29.27"/></g><g id="Layer_3" data-name="Layer 3"><path class="cls-2" d="M92.24,68.19C91.68,57.94,91,45.63,91.12,36.47h-.33c-2.56,8.61-5.68,17.77-9.47,27.9L68.06,100H60.7L48.56,65C45,54.67,42,45.19,39.86,36.47h-.22c-.22,9.16-.78,21.47-1.45,32.48l-2,31.5H26.94L32.17,27H44.54L57.36,62.52c3.12,9,5.68,17.11,7.58,24.74h.33c1.9-7.41,4.57-15.48,7.91-24.74L86.56,27H98.92l4.68,73.46H94.13Z" transform="translate(-26.94 -26.99)"/></g><g id="Layer_4" data-name="Layer 4"><path class="cls-3" d="M176.79,253.1V221.93l-23.22-42.29h10.79l10.36,20.27c2.83,5.56,5,10,7.3,15.15h.22c2.07-4.79,4.57-9.59,7.41-15.15l10.57-20.27H211l-24.63,42.18V253.1Z" transform="translate(-26.94 -26.99)"/></g></svg>